<svg width="75" height="83" viewBox="0 0 75 83" fill="none" xmlns="http://www.w3.org/2000/svg">
<g clip-path="url(#clip0_1190_364)">
<path d="M26.4706 33.719L41.5963 48.8447L26.4706 63.9727L0 37.5021L26.4706 11.0315L33.0882 17.6491L29.3074 21.43L26.4706 18.5933L7.56397 37.4999L26.4706 56.4065L34.0721 48.805L22.6875 37.4999L26.4706 33.719ZM49.1603 11.0293L75.6309 37.4999L49.1603 63.9705L42.5426 57.3528L46.3235 53.5719L49.1603 56.4087L68.0669 37.5021L49.1603 18.5955L41.5588 26.1969L52.9434 37.5021L49.1625 41.283L34.0368 26.1572L49.1603 11.0293Z" fill="#2C79C0"/>
<path d="M27.0163 71.5454C26.9632 71.3488 26.8852 71.1756 26.7822 71.0258C26.6793 70.8729 26.5529 70.7434 26.4031 70.6374C26.2533 70.5313 26.0817 70.4517 25.8882 70.3986C25.6948 70.3425 25.4826 70.3144 25.2517 70.3144C24.7867 70.3144 24.3842 70.4267 24.0441 70.6514C23.7071 70.8761 23.4465 71.2037 23.2624 71.6343C23.0783 72.0618 22.9862 72.5814 22.9862 73.193C22.9862 73.8077 23.0752 74.3319 23.253 74.7657C23.4309 75.1994 23.6883 75.5302 24.0254 75.758C24.3624 75.9858 24.7711 76.0997 25.2517 76.0997C25.6761 76.0997 26.0349 76.031 26.3282 75.8937C26.6247 75.7533 26.8493 75.5551 27.0022 75.2993C27.1551 75.0434 27.2316 74.7423 27.2316 74.3959L27.6622 74.4474H25.3312V72.7577H29.4643V74.0261C29.4643 74.8843 29.2817 75.6191 28.9166 76.2307C28.5546 76.8423 28.0554 77.3119 27.4188 77.6396C26.7854 77.9672 26.0567 78.1311 25.233 78.1311C24.3187 78.1311 23.5152 77.9329 22.8224 77.5366C22.1297 77.1403 21.5899 76.5755 21.2029 75.8422C20.816 75.1058 20.6225 74.2321 20.6225 73.2211C20.6225 72.4347 20.7395 71.7373 20.9736 71.1288C21.2076 70.5172 21.5337 69.9992 21.9518 69.5748C22.3731 69.1505 22.8599 68.8291 23.4122 68.6106C23.9676 68.3922 24.5652 68.283 25.2049 68.283C25.7603 68.283 26.2767 68.3626 26.7542 68.5217C27.2347 68.6808 27.6591 68.9055 28.0273 69.1957C28.3986 69.4859 28.6997 69.8307 28.9307 70.2301C29.1616 70.6296 29.3051 71.068 29.3613 71.5454H27.0163ZM34.1905 78.1357C33.4385 78.1357 32.7895 77.9875 32.2434 77.6911C31.7004 77.3915 31.2823 76.9656 30.989 76.4133C30.6988 75.8578 30.5537 75.1979 30.5537 74.4334C30.5537 73.6907 30.7003 73.0416 30.9937 72.4862C31.287 71.9277 31.7004 71.4939 32.234 71.185C32.7676 70.8729 33.3964 70.7169 34.1203 70.7169C34.6321 70.7169 35.1001 70.7965 35.5245 70.9556C35.9489 71.1148 36.3155 71.3504 36.6245 71.6624C36.9334 71.9745 37.1737 72.3598 37.3453 72.8185C37.5169 73.2741 37.6027 73.7968 37.6027 74.3865V74.9576H31.3541V73.6283H35.473C35.4699 73.3849 35.4122 73.168 35.2998 72.9777C35.1875 72.7873 35.033 72.6391 34.8365 72.533C34.643 72.4238 34.4199 72.3692 34.1671 72.3692C33.9113 72.3692 33.6819 72.4269 33.4791 72.5424C33.2762 72.6547 33.1155 72.8092 32.997 73.0058C32.8784 73.1992 32.816 73.4192 32.8097 73.6657V75.0184C32.8097 75.3118 32.8675 75.5692 32.9829 75.7907C33.0984 76.0092 33.2622 76.1792 33.4744 76.3009C33.6866 76.4226 33.9393 76.4835 34.2327 76.4835C34.4355 76.4835 34.6196 76.4554 34.785 76.3992C34.9504 76.3431 35.0923 76.2604 35.2109 76.1511C35.3295 76.0419 35.4184 75.9078 35.4777 75.7486L37.5793 75.8095C37.4919 76.2806 37.3 76.691 37.0036 77.0405C36.7103 77.3868 36.3249 77.6568 35.8475 77.8502C35.37 78.0406 34.8177 78.1357 34.1905 78.1357ZM41.0605 73.8998V78H38.7717V70.8105H40.9482V72.1305H41.0278C41.1869 71.6905 41.4584 71.3457 41.8422 71.0961C42.226 70.8433 42.6832 70.7169 43.2136 70.7169C43.7191 70.7169 44.1576 70.8308 44.5289 71.0586C44.9033 71.2833 45.1935 71.5984 45.3995 72.0041C45.6086 72.4066 45.7115 72.8778 45.7084 73.4177V78H43.4196V73.867C43.4227 73.4676 43.3213 73.1555 43.1153 72.9309C42.9125 72.7062 42.6301 72.5939 42.2681 72.5939C42.0279 72.5939 41.8157 72.6469 41.6316 72.753C41.4506 72.856 41.3102 73.0042 41.2103 73.1977C41.1136 73.3911 41.0637 73.6252 41.0605 73.8998ZM51.1836 70.8105V72.4956H46.648V70.8105H51.1836ZM47.5982 69.0881H49.8871V75.7393C49.8871 75.8797 49.9089 75.9936 49.9526 76.0809C49.9994 76.1652 50.0665 76.226 50.1538 76.2635C50.2412 76.2978 50.3458 76.315 50.4675 76.315C50.5548 76.315 50.6469 76.3072 50.7436 76.2916C50.8435 76.2728 50.9184 76.2572 50.9683 76.2448L51.3146 77.897C51.2054 77.9282 51.051 77.9672 50.8513 78.014C50.6547 78.0608 50.4191 78.0905 50.1445 78.103C49.6078 78.1279 49.1475 78.0655 48.7637 77.9157C48.383 77.7628 48.0912 77.5257 47.8884 77.2043C47.6887 76.8829 47.592 76.4788 47.5982 75.992V69.0881ZM55.6302 78.1357C54.8751 78.1357 54.226 77.9813 53.6831 77.6724C53.1432 77.3603 52.7266 76.9266 52.4333 76.3711C52.1431 75.8126 51.998 75.1651 51.998 74.4287C51.998 73.6891 52.1431 73.0416 52.4333 72.4862C52.7266 71.9277 53.1432 71.4939 53.6831 71.185C54.226 70.8729 54.8751 70.7169 55.6302 70.7169C56.3853 70.7169 57.0328 70.8729 57.5727 71.185C58.1156 71.4939 58.5322 71.9277 58.8224 72.4862C59.1157 73.0416 59.2624 73.6891 59.2624 74.4287C59.2624 75.1651 59.1157 75.8126 58.8224 76.3711C58.5322 76.9266 58.1156 77.3603 57.5727 77.6724C57.0328 77.9813 56.3853 78.1357 55.6302 78.1357ZM55.6442 76.4086C55.9188 76.4086 56.1513 76.3243 56.3417 76.1558C56.532 75.9873 56.6771 75.7533 56.777 75.4537C56.8799 75.1542 56.9314 74.8078 56.9314 74.4146C56.9314 74.0152 56.8799 73.6657 56.777 73.3662C56.6771 73.0666 56.532 72.8326 56.3417 72.6641C56.1513 72.4956 55.9188 72.4113 55.6442 72.4113C55.3603 72.4113 55.12 72.4956 54.9234 72.6641C54.73 72.8326 54.5817 73.0666 54.4788 73.3662C54.3789 73.6657 54.329 74.0152 54.329 74.4146C54.329 74.8078 54.3789 75.1542 54.4788 75.4537C54.5817 75.7533 54.73 75.9873 54.9234 76.1558C55.12 76.3243 55.3603 76.4086 55.6442 76.4086Z" fill="black"/>
</g>
<defs>
<clipPath id="clip0_1190_364">
<rect width="75" height="83" fill="white"/>
</clipPath>
</defs>
</svg>
