<svg width="1977" height="555" viewBox="0 0 1977 555" fill="none" xmlns="http://www.w3.org/2000/svg">
<path d="M508.467 373V358.904L553.723 353.711H562.255L607.139 358.904V373H508.467ZM538.885 373C539.379 355.936 539.627 338.625 539.627 321.067C539.874 303.262 539.998 285.332 539.998 267.28V250.958C539.998 233.4 539.874 215.841 539.627 198.283C539.627 180.478 539.379 162.796 538.885 145.237H575.98C575.485 162.548 575.114 180.107 574.867 197.912C574.867 215.47 574.867 233.152 574.867 250.958V271.731C574.867 288.547 574.867 305.24 574.867 321.809C575.114 338.378 575.485 355.442 575.98 373H538.885ZM557.432 283.601V267.28H596.382C616.413 267.28 630.756 262.21 639.412 252.071C648.067 241.931 652.395 228.948 652.395 213.121C652.395 196.799 647.696 184.187 638.299 175.284C629.149 166.134 614.682 161.559 594.898 161.559H557.432V145.237H600.462C629.891 145.237 651.901 151.544 666.491 164.156C681.082 176.521 688.377 192.843 688.377 213.121C688.377 225.733 685.162 237.48 678.733 248.361C672.55 258.995 662.411 267.527 648.315 273.957C634.219 280.386 615.424 283.601 591.93 283.601H557.432ZM508.467 159.704V145.237H557.432V164.527H553.723L508.467 159.704ZM816.334 378.193C802.98 378.193 789.997 375.72 777.385 370.774C765.02 365.581 753.768 358.038 743.628 348.146C733.736 338.007 725.823 325.519 719.888 310.681C714.2 295.843 711.356 278.655 711.356 259.119C711.356 240.324 714.323 223.508 720.258 208.67C726.194 193.832 734.107 181.343 743.999 171.204C753.891 160.817 765.02 153.027 777.385 147.834C789.997 142.393 802.98 139.673 816.334 139.673C829.688 139.673 842.548 142.27 854.913 147.463C867.278 152.409 878.406 159.952 888.298 170.091C898.438 180.23 906.351 192.719 912.039 207.557C917.974 222.395 920.942 239.582 920.942 259.119C920.942 277.913 917.974 294.73 912.039 309.568C906.351 324.406 898.561 336.894 888.669 347.034C878.777 357.173 867.525 364.963 854.913 370.403C842.548 375.597 829.688 378.193 816.334 378.193ZM816.334 360.759C831.667 360.759 844.032 355.936 853.429 346.292C863.074 336.647 870.122 324.035 874.573 308.455C879.025 292.875 881.25 276.43 881.25 259.119C881.25 246.012 880.014 233.4 877.541 221.282C875.068 209.164 871.111 198.407 865.67 189.009C860.477 179.365 853.8 171.698 845.639 166.011C837.478 160.323 827.71 157.479 816.334 157.479C804.958 157.479 795.066 160.323 786.658 166.011C778.497 171.698 771.697 179.365 766.256 189.009C761.063 198.407 757.23 209.164 754.757 221.282C752.284 233.4 751.047 246.012 751.047 259.119C751.047 276.43 753.273 292.875 757.724 308.455C762.176 324.035 769.224 336.647 778.868 346.292C788.513 355.936 801.002 360.759 816.334 360.759ZM951.142 373V358.904L996.398 353.711H1000.11V373H951.142ZM981.56 373C982.055 355.442 982.302 337.884 982.302 320.325C982.549 302.767 982.673 285.456 982.673 268.392V250.958C982.673 233.152 982.549 215.47 982.302 197.912C982.302 180.107 982.055 162.548 981.56 145.237H1018.65C1018.16 162.796 1017.79 180.478 1017.54 198.283C1017.54 215.841 1017.54 233.4 1017.54 250.958V273.957C1017.54 288.547 1017.54 304.498 1017.54 321.809C1017.79 338.873 1018.16 355.936 1018.65 373H981.56ZM1000.11 373V355.936H1103.97L1091.73 365.581L1103.6 308.826H1125.12L1121.78 373H1000.11ZM951.142 159.704V145.237H1049.44V159.704L1004.19 164.527H996.398L951.142 159.704ZM1141.03 373V358.904L1175.16 353.711H1181.83L1218.56 358.904V373H1141.03ZM1162.92 373L1241.56 143.754H1264.56L1342.83 373H1306.84L1243.78 183.816L1179.61 373H1162.92ZM1197.04 299.923L1202.61 283.601H1294.6L1300.54 299.923H1197.04ZM1267.89 373V358.904L1310.18 353.711H1319.83L1362.12 358.904V373H1267.89Z" fill="#0D5A71"/>
<path d="M1417.19 373V358.904L1465.04 353.711H1473.2L1521.8 358.904V373H1417.19ZM1450.95 373C1451.44 355.936 1451.69 338.625 1451.69 321.067C1451.69 303.262 1451.69 285.332 1451.69 267.28V250.958C1451.69 233.4 1451.69 215.841 1451.69 198.283C1451.69 180.478 1451.44 162.796 1450.95 145.237H1488.04C1487.55 162.548 1487.18 180.107 1486.93 197.912C1486.93 215.47 1486.93 233.152 1486.93 250.958V267.28C1486.93 284.838 1486.93 302.52 1486.93 320.325C1487.18 337.884 1487.55 355.442 1488.04 373H1450.95ZM1372.68 206.444L1374.9 145.237H1563.72L1566.31 206.444H1545.54L1535.15 145.237L1551.85 162.672H1387.14L1403.84 145.237L1393.08 206.444H1372.68ZM1587.31 373V358.904L1632.57 353.711H1639.99L1685.24 358.904V373H1587.31ZM1617.73 373C1618.23 355.936 1618.47 338.625 1618.47 321.067C1618.72 303.262 1618.85 285.332 1618.85 267.28V250.958C1618.85 233.4 1618.72 215.841 1618.47 198.283C1618.47 180.478 1618.23 162.796 1617.73 145.237H1654.83C1654.33 162.548 1653.96 180.107 1653.71 197.912C1653.71 215.47 1653.71 233.152 1653.71 250.958V267.28C1653.71 284.838 1653.71 302.52 1653.71 320.325C1653.96 337.884 1654.33 355.442 1654.83 373H1617.73ZM1587.31 159.704V145.237H1685.24V159.704L1639.99 164.527H1632.57L1587.31 159.704ZM1703.34 373V358.904L1739.69 354.082H1746.74L1780.87 358.904V373H1703.34ZM1723 373L1802.38 252.442L1814.25 260.973L1743.03 373H1723ZM1819.82 373V358.904L1864.7 353.711H1872.86L1917.75 358.904V373H1819.82ZM1814.99 264.683L1803.49 256.151L1872.12 145.237H1892.52L1814.99 264.683ZM1861.36 373L1724.85 145.237H1763.43L1900.31 373H1861.36ZM1705.93 159.704V145.237H1803.12V159.704L1758.61 164.527H1750.08L1705.93 159.704ZM1832.8 159.704V145.237H1910.33V159.704L1873.97 164.156H1866.55L1832.8 159.704Z" fill="#00AEEF"/>
<path d="M527.87 447C527.132 447 526.763 446.594 526.763 445.783V416.476C526.763 415.664 527.132 415.258 527.87 415.258H537.166C542.184 415.258 545.57 416.107 547.327 417.804C549.083 419.486 549.961 421.803 549.961 424.754C549.961 427.706 549.083 430.03 547.327 431.727C545.57 433.409 542.184 434.25 537.166 434.25H531.013V445.783C531.013 446.594 530.644 447 529.906 447H527.87ZM531.013 430.62H537.233C540.479 430.62 542.693 430.163 543.873 429.248C545.054 428.318 545.644 426.82 545.644 424.754C545.644 422.688 545.054 421.198 543.873 420.283C542.693 419.353 540.479 418.888 537.233 418.888H531.013V430.62ZM582.394 435.379C582.394 431.911 583.309 429.048 585.139 426.791C586.983 424.518 589.676 423.382 593.218 423.382C596.76 423.382 599.445 424.518 601.275 426.791C603.12 429.048 604.042 431.911 604.042 435.379C604.042 438.847 603.12 441.717 601.275 443.99C599.445 446.247 596.76 447.376 593.218 447.376C589.676 447.376 586.983 446.247 585.139 443.99C583.309 441.717 582.394 438.847 582.394 435.379ZM586.511 435.379C586.511 438.478 587.123 440.773 588.348 442.263C589.573 443.754 591.196 444.499 593.218 444.499C595.24 444.499 596.863 443.754 598.088 442.263C599.313 440.773 599.925 438.478 599.925 435.379C599.925 432.28 599.313 429.985 598.088 428.495C596.863 427.005 595.24 426.259 593.218 426.259C591.196 426.259 589.573 427.005 588.348 428.495C587.123 429.985 586.511 432.28 586.511 435.379ZM638.622 447C637.958 447 637.626 446.668 637.626 446.004V424.754C637.626 424.09 637.958 423.758 638.622 423.758H640.482C641.146 423.758 641.478 424.09 641.478 424.754V426.525H641.566C642.526 425.463 643.559 424.673 644.665 424.157C645.772 423.64 647.152 423.382 648.805 423.382C651.49 423.382 653.416 424.142 654.582 425.662C655.762 427.167 656.353 429.233 656.353 431.86V446.004C656.353 446.668 656.021 447 655.357 447H653.453C652.789 447 652.457 446.668 652.457 446.004V432.922C652.457 430.03 651.977 428.2 651.018 427.433C650.059 426.65 648.842 426.259 647.366 426.259C645.447 426.259 643.994 426.835 643.005 427.986C642.017 429.122 641.522 431.077 641.522 433.852V446.004C641.522 446.668 641.19 447 640.526 447H638.622ZM689.893 435.379C689.893 432.206 690.66 429.417 692.195 427.012C693.73 424.592 695.973 423.382 698.924 423.382C700.621 423.382 701.979 423.662 702.997 424.223C704.015 424.784 704.93 425.551 705.742 426.525H705.786C705.756 426.082 705.742 425.632 705.742 425.175V415.325C705.742 414.661 706.074 414.329 706.738 414.329H708.641C709.305 414.329 709.637 414.661 709.637 415.325V446.004C709.637 446.668 709.305 447 708.641 447H706.782C706.251 447 705.963 446.668 705.919 446.004L705.786 444.233H705.742C704.93 445.207 704.015 445.974 702.997 446.535C701.979 447.096 700.621 447.376 698.924 447.376C695.973 447.376 693.73 446.174 692.195 443.768C690.66 441.348 689.893 438.552 689.893 435.379ZM694.01 435.379C694.01 438.094 694.475 440.293 695.404 441.975C696.349 443.658 697.943 444.499 700.186 444.499C701.779 444.499 703.1 443.96 704.148 442.883C705.21 441.791 705.742 440.138 705.742 437.925V432.834C705.742 430.62 705.21 428.975 704.148 427.897C703.1 426.805 701.779 426.259 700.186 426.259C697.943 426.259 696.349 427.101 695.404 428.783C694.475 430.465 694.01 432.664 694.01 435.379ZM743.244 435.379C743.244 431.911 744.159 429.048 745.989 426.791C747.833 424.518 750.526 423.382 754.068 423.382C757.609 423.382 760.295 424.518 762.125 426.791C763.97 429.048 764.892 431.911 764.892 435.379C764.892 438.847 763.97 441.717 762.125 443.99C760.295 446.247 757.609 447.376 754.068 447.376C750.526 447.376 747.833 446.247 745.989 443.99C744.159 441.717 743.244 438.847 743.244 435.379ZM747.361 435.379C747.361 438.478 747.973 440.773 749.198 442.263C750.423 443.754 752.046 444.499 754.068 444.499C756.09 444.499 757.713 443.754 758.938 442.263C760.162 440.773 760.775 438.478 760.775 435.379C760.775 432.28 760.162 429.985 758.938 428.495C757.713 427.005 756.09 426.259 754.068 426.259C752.046 426.259 750.423 427.005 749.198 428.495C747.973 429.985 747.361 432.28 747.361 435.379ZM799.472 447C798.808 447 798.476 446.668 798.476 446.004V415.325C798.476 414.661 798.808 414.329 799.472 414.329H801.376C802.04 414.329 802.372 414.661 802.372 415.325V433.741C802.372 434.184 802.357 434.626 802.328 435.069H802.372L811.337 424.334C811.661 423.95 812.052 423.758 812.51 423.758H814.524C815.646 423.758 815.838 424.193 815.1 425.064L808.149 433.343L816.096 445.694C816.657 446.565 816.465 447 815.52 447H813.351C812.864 447 812.444 446.727 812.089 446.181L805.714 436.242L802.372 440.227V446.004C802.372 446.668 802.04 447 801.376 447H799.472ZM894.642 447C893.904 447 893.535 446.594 893.535 445.783V416.476C893.535 415.664 893.904 415.258 894.642 415.258H896.678C897.416 415.258 897.785 415.664 897.785 416.476V443.37H912.461C913.272 443.37 913.678 443.702 913.678 444.366V446.004C913.678 446.668 913.272 447 912.461 447H894.642ZM945.359 440.802C945.359 438.175 946.584 436.25 949.033 435.025C951.498 433.8 955.172 433.084 960.057 432.878V431.373C960.057 429.985 959.739 428.79 959.105 427.787C958.485 426.768 957.245 426.259 955.386 426.259C954.206 426.259 953.261 426.377 952.553 426.614C951.844 426.835 951.195 427.137 950.605 427.521C950.029 427.89 949.476 428.37 948.945 428.96C948.546 429.403 948.17 429.425 947.816 429.026L946.665 427.698C946.34 427.329 946.451 426.887 946.997 426.37C947.779 425.632 948.539 425.079 949.277 424.71C950.015 424.341 950.93 424.031 952.022 423.78C953.128 423.515 954.25 423.382 955.386 423.382C958.47 423.382 960.669 424.179 961.982 425.772C963.296 427.351 963.952 429.521 963.952 432.28V446.004C963.952 446.668 963.62 447 962.956 447H960.964C960.389 447 960.101 446.668 960.101 446.004V444.919H960.057C958.891 445.834 957.747 446.476 956.626 446.845C955.519 447.199 954.279 447.376 952.907 447.376C950.487 447.376 948.62 446.801 947.307 445.65C946.008 444.484 945.359 442.868 945.359 440.802ZM949.387 440.891C949.387 441.806 949.579 442.543 949.963 443.104C950.347 443.65 950.878 444.004 951.557 444.167C952.236 444.314 952.944 444.388 953.682 444.388C954.818 444.388 955.895 444.277 956.913 444.056C957.932 443.835 958.979 443.252 960.057 442.307V435.777C957.076 435.999 954.951 436.272 953.682 436.596C952.413 436.906 951.38 437.452 950.583 438.234C949.786 439.002 949.387 439.887 949.387 440.891ZM999.817 447C999.153 447 998.821 446.668 998.821 446.004V415.325C998.821 414.661 999.153 414.329 999.817 414.329H1001.72C1002.38 414.329 1002.72 414.661 1002.72 415.325V425.175C1002.72 425.632 1002.7 426.082 1002.67 426.525H1002.72C1003.53 425.551 1004.44 424.784 1005.46 424.223C1006.48 423.662 1007.84 423.382 1009.53 423.382C1012.49 423.382 1014.73 424.592 1016.26 427.012C1017.8 429.417 1018.57 432.206 1018.57 435.379C1018.57 438.552 1017.8 441.348 1016.26 443.768C1014.73 446.174 1012.49 447.376 1009.53 447.376C1007.84 447.376 1006.48 447.096 1005.46 446.535C1004.44 445.974 1003.53 445.207 1002.72 444.233H1002.67L1002.54 446.004C1002.49 446.668 1002.21 447 1001.68 447H999.817ZM1002.72 437.925C1002.72 440.138 1003.24 441.791 1004.29 442.883C1005.35 443.96 1006.68 444.499 1008.27 444.499C1010.52 444.499 1012.1 443.658 1013.03 441.975C1013.98 440.293 1014.45 438.094 1014.45 435.379C1014.45 432.664 1013.98 430.465 1013.03 428.783C1012.1 427.101 1010.52 426.259 1008.27 426.259C1006.68 426.259 1005.35 426.805 1004.29 427.897C1003.24 428.975 1002.72 430.62 1002.72 432.834V437.925ZM1052.13 438.899V424.754C1052.13 424.09 1052.46 423.758 1053.12 423.758H1055.03C1055.69 423.758 1056.02 424.09 1056.02 424.754V437.836C1056.02 440.728 1056.5 442.566 1057.46 443.348C1058.42 444.115 1059.61 444.499 1061.03 444.499C1062.88 444.499 1064.31 443.931 1065.3 442.794C1066.29 441.643 1066.78 439.681 1066.78 436.906V424.754C1066.78 424.09 1067.11 423.758 1067.78 423.758H1069.68C1070.34 423.758 1070.68 424.09 1070.68 424.754V446.004C1070.68 446.668 1070.34 447 1069.68 447H1067.82C1067.16 447 1066.83 446.668 1066.83 446.004V444.233H1066.74C1065.78 445.296 1064.74 446.085 1063.64 446.602C1062.53 447.118 1061.18 447.376 1059.59 447.376C1057 447.376 1055.12 446.624 1053.92 445.119C1052.72 443.599 1052.13 441.525 1052.13 438.899ZM1104.62 436.309C1103.95 436.309 1103.62 436.05 1103.62 435.534V433.985C1103.62 433.468 1103.95 433.21 1104.62 433.21H1115.2C1115.86 433.21 1116.19 433.468 1116.19 433.985V435.534C1116.19 436.05 1115.86 436.309 1115.2 436.309H1104.62ZM1148.01 419.065C1147.19 419.065 1146.79 418.733 1146.79 418.069V416.254C1146.79 415.59 1147.19 415.258 1148.01 415.258H1171.42C1172.24 415.258 1172.64 415.59 1172.64 416.254V418.069C1172.64 418.733 1172.24 419.065 1171.42 419.065H1161.84V445.783C1161.84 446.594 1161.47 447 1160.73 447H1158.7C1157.96 447 1157.59 446.594 1157.59 445.783V419.065H1148.01ZM1206.14 447C1205.47 447 1205.14 446.668 1205.14 446.004V424.754C1205.14 424.09 1205.47 423.758 1206.14 423.758H1208.04C1208.71 423.758 1209.04 424.09 1209.04 424.754V446.004C1209.04 446.668 1208.71 447 1208.04 447H1206.14ZM1206.14 419.552C1205.47 419.552 1205.14 419.22 1205.14 418.556V416.653C1205.14 415.989 1205.47 415.657 1206.14 415.657H1208.04C1208.71 415.657 1209.04 415.989 1209.04 416.653V418.556C1209.04 419.22 1208.71 419.552 1208.04 419.552H1206.14ZM1242.62 435.379C1242.62 431.911 1243.48 429.048 1245.19 426.791C1246.92 424.518 1249.55 423.382 1253.09 423.382C1255.48 423.382 1257.3 423.81 1258.56 424.666C1259.83 425.507 1260.74 426.37 1261.3 427.255C1261.61 427.742 1261.55 428.133 1261.1 428.429L1259.71 429.336C1259.27 429.646 1258.82 429.447 1258.38 428.739C1257.95 428.06 1257.35 427.477 1256.57 426.99C1255.8 426.503 1254.64 426.259 1253.09 426.259C1251.07 426.259 1249.51 427.005 1248.4 428.495C1247.29 429.985 1246.74 432.28 1246.74 435.379C1246.74 438.478 1247.29 440.773 1248.4 442.263C1249.51 443.754 1251.07 444.499 1253.09 444.499C1254.73 444.499 1255.98 444.189 1256.85 443.569C1257.73 442.935 1258.36 442.248 1258.76 441.51C1259.14 440.817 1259.58 440.618 1260.06 440.913L1261.55 441.798C1261.99 442.064 1262.06 442.462 1261.75 442.994C1261.38 443.628 1260.54 444.521 1259.22 445.672C1257.92 446.808 1255.88 447.376 1253.09 447.376C1249.55 447.376 1246.92 446.247 1245.19 443.99C1243.48 441.717 1242.62 438.847 1242.62 435.379ZM1296.15 447C1295.49 447 1295.15 446.668 1295.15 446.004V415.325C1295.15 414.661 1295.49 414.329 1296.15 414.329H1298.05C1298.72 414.329 1299.05 414.661 1299.05 415.325V433.741C1299.05 434.184 1299.03 434.626 1299 435.069H1299.05L1308.01 424.334C1308.34 423.95 1308.73 423.758 1309.19 423.758H1311.2C1312.32 423.758 1312.51 424.193 1311.78 425.064L1304.83 433.343L1312.77 445.694C1313.33 446.565 1313.14 447 1312.2 447H1310.03C1309.54 447 1309.12 446.727 1308.77 446.181L1302.39 436.242L1299.05 440.227V446.004C1299.05 446.668 1298.72 447 1298.05 447H1296.15ZM1344.68 435.379C1344.68 431.719 1345.59 428.805 1347.42 426.636C1349.25 424.466 1351.87 423.382 1355.28 423.382C1358.11 423.382 1360.46 424.378 1362.32 426.37C1364.19 428.347 1365.13 431.513 1365.13 435.866C1365.13 436.53 1364.83 436.862 1364.22 436.862H1348.79C1349.04 439.71 1349.81 441.695 1351.09 442.816C1352.38 443.923 1353.83 444.477 1355.45 444.477C1357.17 444.477 1358.48 444.189 1359.39 443.613C1360.31 443.038 1360.98 442.47 1361.41 441.909C1361.88 441.289 1362.34 441.171 1362.78 441.555L1364.09 442.684C1364.43 442.979 1364.43 443.385 1364.09 443.901C1363.81 444.329 1363 445.015 1361.67 445.96C1360.36 446.904 1358.29 447.376 1355.45 447.376C1351.77 447.376 1349.04 446.292 1347.29 444.122C1345.55 441.953 1344.68 439.039 1344.68 435.379ZM1348.7 433.985H1361.21C1361.15 431.919 1360.62 430.111 1359.62 428.561C1358.61 426.997 1357.14 426.215 1355.19 426.215C1353.48 426.215 1352.02 426.791 1350.83 427.942C1349.63 429.078 1348.93 431.092 1348.7 433.985ZM1397.67 426.68C1397.01 426.68 1396.68 426.422 1396.68 425.905V424.533C1396.68 424.016 1397.01 423.758 1397.67 423.758H1400.28V421.766C1400.28 421.471 1400.36 421.19 1400.51 420.925L1402.05 418.114C1402.34 417.597 1402.56 417.339 1402.74 417.339H1403.52C1403.96 417.339 1404.18 417.597 1404.18 418.114V423.758H1408.89C1409.56 423.758 1409.89 424.016 1409.89 424.533V425.905C1409.89 426.422 1409.56 426.68 1408.89 426.68H1404.18V440.78C1404.18 442.329 1404.41 443.34 1404.87 443.813C1405.34 444.27 1405.9 444.499 1406.55 444.499C1407.05 444.499 1407.65 444.351 1408.34 444.056C1409.05 443.761 1409.54 443.51 1409.8 443.303C1410.07 443.097 1410.27 443.163 1410.42 443.503L1411.15 445.207C1411.27 445.502 1411.18 445.738 1410.89 445.915C1410.31 446.255 1409.47 446.587 1408.36 446.911C1407.26 447.221 1406.15 447.376 1405.04 447.376C1403.51 447.376 1402.33 446.823 1401.5 445.716C1400.69 444.609 1400.28 443.045 1400.28 441.024V426.68H1397.67ZM1445.13 447C1444.47 447 1444.14 446.668 1444.14 446.004V424.754C1444.14 424.09 1444.47 423.758 1445.13 423.758H1447.04C1447.7 423.758 1448.03 424.09 1448.03 424.754V446.004C1448.03 446.668 1447.7 447 1447.04 447H1445.13ZM1445.13 419.552C1444.47 419.552 1444.14 419.22 1444.14 418.556V416.653C1444.14 415.989 1444.47 415.657 1445.13 415.657H1447.04C1447.7 415.657 1448.03 415.989 1448.03 416.653V418.556C1448.03 419.22 1447.7 419.552 1447.04 419.552H1445.13ZM1483.88 447C1483.21 447 1482.88 446.668 1482.88 446.004V424.754C1482.88 424.09 1483.21 423.758 1483.88 423.758H1485.74C1486.4 423.758 1486.73 424.09 1486.73 424.754V426.525H1486.82C1487.78 425.463 1488.81 424.673 1489.92 424.157C1491.03 423.64 1492.41 423.382 1494.06 423.382C1496.74 423.382 1498.67 424.142 1499.84 425.662C1501.02 427.167 1501.61 429.233 1501.61 431.86V446.004C1501.61 446.668 1501.28 447 1500.61 447H1498.71C1498.04 447 1497.71 446.668 1497.71 446.004V432.922C1497.71 430.03 1497.23 428.2 1496.27 427.433C1495.31 426.65 1494.1 426.259 1492.62 426.259C1490.7 426.259 1489.25 426.835 1488.26 427.986C1487.27 429.122 1486.78 431.077 1486.78 433.852V446.004C1486.78 446.668 1486.44 447 1485.78 447H1483.88ZM1535.15 435.379C1535.15 432.206 1535.91 429.417 1537.45 427.012C1538.98 424.592 1541.23 423.382 1544.18 423.382C1545.88 423.382 1547.23 423.662 1548.25 424.223C1549.27 424.784 1550.18 425.551 1551 426.525H1551.04L1551.17 424.754C1551.22 424.09 1551.5 423.758 1552.04 423.758H1553.9C1554.56 423.758 1554.89 424.09 1554.89 424.754V447.177C1554.89 450.01 1554.23 452.224 1552.92 453.818C1551.62 455.426 1549.05 456.23 1545.2 456.23C1542.61 456.23 1540.68 455.935 1539.4 455.345C1538.11 454.769 1537.2 454.157 1536.65 453.508C1536.25 453.021 1536.23 452.608 1536.59 452.268L1537.8 451.073C1538.14 450.748 1538.61 450.852 1539.22 451.383C1540 452.091 1540.75 452.593 1541.48 452.888C1542.2 453.198 1543.45 453.353 1545.22 453.353C1547.23 453.353 1548.69 452.925 1549.6 452.069C1550.53 451.213 1551 449.442 1551 446.757V445.428C1551 444.971 1551.01 444.521 1551.04 444.078H1551C1550.23 445.096 1549.32 445.901 1548.27 446.491C1547.24 447.081 1545.88 447.376 1544.18 447.376C1541.23 447.376 1538.98 446.174 1537.45 443.768C1535.91 441.348 1535.15 438.552 1535.15 435.379ZM1539.26 435.379C1539.26 438.094 1539.73 440.293 1540.66 441.975C1541.6 443.658 1543.2 444.499 1545.44 444.499C1547.03 444.499 1548.35 443.96 1549.4 442.883C1550.46 441.791 1551 440.138 1551 437.925V432.834C1551 430.62 1550.46 428.975 1549.4 427.897C1548.35 426.805 1547.03 426.259 1545.44 426.259C1543.2 426.259 1541.6 427.101 1540.66 428.783C1539.73 430.465 1539.26 432.664 1539.26 435.379ZM1633.95 444.609C1633.16 443.901 1632.96 443.281 1633.33 442.75L1634.48 441.09C1634.88 440.514 1635.52 440.559 1636.4 441.223C1637.57 442.093 1638.78 442.809 1640.03 443.37C1641.3 443.931 1642.84 444.211 1644.64 444.211C1645.97 444.211 1647.09 444.012 1648 443.613C1648.92 443.215 1649.65 442.647 1650.19 441.909C1650.75 441.156 1651.04 440.249 1651.04 439.186C1651.04 438.419 1650.92 437.711 1650.68 437.061C1650.46 436.397 1650.1 435.844 1649.6 435.401C1649.09 434.958 1648.57 434.612 1648.02 434.361C1647.12 433.948 1645.77 433.468 1643.97 432.922C1642.19 432.376 1640.62 431.786 1639.28 431.151C1637.95 430.517 1636.89 429.749 1636.09 428.849C1635.31 427.949 1634.79 427.027 1634.52 426.082C1634.27 425.123 1634.15 424.031 1634.15 422.806C1634.15 420.932 1634.69 419.316 1635.78 417.959C1636.88 416.601 1638.21 415.701 1639.79 415.258C1641.38 414.816 1643 414.594 1644.64 414.594C1646.51 414.594 1648.14 414.838 1649.53 415.325C1650.92 415.812 1652.16 416.446 1653.25 417.228C1654.02 417.774 1654.19 418.35 1653.78 418.955L1652.65 420.571C1652.31 421.058 1651.65 420.954 1650.66 420.261C1649.91 419.73 1648.98 419.235 1647.89 418.778C1646.81 418.305 1645.74 418.069 1644.68 418.069C1643.32 418.069 1642.2 418.232 1641.3 418.556C1640.4 418.866 1639.69 419.397 1639.17 420.15C1638.65 420.903 1638.4 421.773 1638.4 422.762C1638.4 423.382 1638.46 423.957 1638.57 424.489C1638.69 425.005 1638.99 425.536 1639.48 426.082C1639.97 426.628 1640.56 427.049 1641.25 427.344C1642.18 427.742 1643.62 428.215 1645.57 428.761C1647.53 429.292 1649.24 429.949 1650.7 430.731C1652.06 431.454 1653.03 432.214 1653.63 433.011C1654.23 433.793 1654.69 434.649 1655.02 435.578C1655.36 436.493 1655.53 437.526 1655.53 438.677C1655.53 440.773 1654.99 442.521 1653.91 443.923C1652.84 445.325 1651.56 446.299 1650.08 446.845C1648.61 447.391 1646.76 447.664 1644.53 447.664C1641.86 447.664 1639.64 447.354 1637.89 446.734C1636.13 446.115 1634.82 445.406 1633.95 444.609ZM1687.45 424.843C1687.19 424.12 1687.39 423.758 1688.05 423.758H1690.46C1690.95 423.758 1691.28 424.046 1691.46 424.621L1696.11 439.231C1696.24 439.629 1696.44 440.256 1696.71 441.112C1696.99 441.953 1697.18 442.706 1697.3 443.37H1697.35C1697.47 442.706 1697.61 442.108 1697.77 441.577C1697.94 441.031 1698.2 440.249 1698.54 439.231L1703.24 424.621C1703.43 424.046 1703.76 423.758 1704.23 423.758H1706.64C1707.31 423.758 1707.51 424.12 1707.24 424.843L1699.78 445.65C1698.38 449.56 1697.13 452.298 1696.02 453.862C1694.91 455.441 1693.26 456.23 1691.06 456.23C1689.91 456.23 1688.99 456.061 1688.32 455.721C1688.01 455.574 1687.9 455.345 1688.01 455.035L1688.58 453.242C1688.69 452.932 1688.88 452.844 1689.18 452.976C1689.78 453.227 1690.37 453.353 1690.93 453.353C1691.96 453.353 1692.8 452.792 1693.45 451.671C1694.1 450.564 1694.62 449.45 1695 448.328L1695.44 447.022L1687.45 424.843ZM1738.63 444.831C1738.18 444.403 1738.08 444.004 1738.35 443.635L1739.34 442.241C1739.67 441.798 1740.15 441.82 1740.78 442.307C1741.65 442.971 1742.62 443.503 1743.68 443.901C1744.76 444.3 1745.98 444.499 1747.36 444.499C1748.17 444.499 1748.89 444.403 1749.53 444.211C1750.16 444.004 1750.71 443.628 1751.19 443.082C1751.67 442.536 1751.92 441.806 1751.92 440.891C1751.92 440.359 1751.8 439.858 1751.56 439.386C1751.34 438.913 1750.99 438.537 1750.5 438.257C1750.03 437.961 1749.56 437.733 1749.1 437.57C1748.35 437.29 1747.6 437.061 1746.85 436.884C1746.11 436.692 1745.13 436.405 1743.92 436.021C1743.11 435.77 1742.35 435.416 1741.62 434.958C1740.9 434.486 1740.27 433.852 1739.72 433.055C1739.19 432.258 1738.92 431.159 1738.92 429.757C1738.92 428.325 1739.36 427.093 1740.23 426.06C1741.1 425.027 1742.19 424.326 1743.5 423.957C1744.82 423.574 1746.09 423.382 1747.33 423.382C1749.16 423.382 1750.63 423.596 1751.74 424.024C1752.86 424.437 1753.83 424.931 1754.64 425.507C1755.11 425.846 1755.18 426.237 1754.84 426.68L1753.84 428.008C1753.53 428.436 1753.05 428.421 1752.4 427.964C1751.86 427.58 1751.08 427.219 1750.08 426.879C1749.07 426.54 1748.2 426.37 1747.44 426.37C1746.51 426.37 1745.72 426.473 1745.05 426.68C1744.39 426.887 1743.85 427.241 1743.44 427.742C1743.02 428.244 1742.82 428.834 1742.82 429.513C1742.82 430.03 1742.9 430.495 1743.06 430.908C1743.22 431.306 1743.53 431.675 1743.97 432.015C1744.41 432.354 1745.03 432.627 1745.83 432.834C1747.07 433.158 1748.2 433.453 1749.22 433.719C1750.25 433.985 1751.18 434.309 1752 434.693C1753.08 435.195 1753.91 435.748 1754.48 436.353C1755.07 436.958 1755.48 437.615 1755.7 438.323C1755.92 439.017 1756.03 439.791 1756.03 440.647C1756.03 442.226 1755.56 443.562 1754.62 444.654C1753.69 445.746 1752.65 446.476 1751.5 446.845C1750.34 447.199 1748.96 447.376 1747.33 447.376C1745.13 447.376 1743.25 447.066 1741.67 446.447C1740.1 445.812 1739.09 445.273 1738.63 444.831ZM1787.87 426.68C1787.2 426.68 1786.87 426.422 1786.87 425.905V424.533C1786.87 424.016 1787.2 423.758 1787.87 423.758H1790.48V421.766C1790.48 421.471 1790.55 421.19 1790.7 420.925L1792.25 418.114C1792.53 417.597 1792.76 417.339 1792.94 417.339H1793.71C1794.15 417.339 1794.38 417.597 1794.38 418.114V423.758H1799.09C1799.75 423.758 1800.09 424.016 1800.09 424.533V425.905C1800.09 426.422 1799.75 426.68 1799.09 426.68H1794.38V440.78C1794.38 442.329 1794.6 443.34 1795.06 443.813C1795.53 444.27 1796.1 444.499 1796.74 444.499C1797.25 444.499 1797.84 444.351 1798.54 444.056C1799.25 443.761 1799.73 443.51 1800 443.303C1800.26 443.097 1800.47 443.163 1800.62 443.503L1801.35 445.207C1801.47 445.502 1801.38 445.738 1801.08 445.915C1800.51 446.255 1799.67 446.587 1798.56 446.911C1797.45 447.221 1796.35 447.376 1795.24 447.376C1793.7 447.376 1792.52 446.823 1791.7 445.716C1790.89 444.609 1790.48 443.045 1790.48 441.024V426.68H1787.87ZM1833.07 435.379C1833.07 431.719 1833.99 428.805 1835.82 426.636C1837.65 424.466 1840.27 423.382 1843.68 423.382C1846.51 423.382 1848.86 424.378 1850.72 426.37C1852.59 428.347 1853.53 431.513 1853.53 435.866C1853.53 436.53 1853.22 436.862 1852.62 436.862H1837.19C1837.44 439.71 1838.21 441.695 1839.49 442.816C1840.78 443.923 1842.23 444.477 1843.85 444.477C1845.57 444.477 1846.88 444.189 1847.79 443.613C1848.71 443.038 1849.38 442.47 1849.81 441.909C1850.28 441.289 1850.74 441.171 1851.18 441.555L1852.49 442.684C1852.83 442.979 1852.83 443.385 1852.49 443.901C1852.21 444.329 1851.4 445.015 1850.07 445.96C1848.76 446.904 1846.69 447.376 1843.85 447.376C1840.16 447.376 1837.44 446.292 1835.69 444.122C1833.94 441.953 1833.07 439.039 1833.07 435.379ZM1837.1 433.985H1849.61C1849.55 431.919 1849.02 430.111 1848.01 428.561C1847.01 426.997 1845.54 426.215 1843.59 426.215C1841.88 426.215 1840.42 426.791 1839.23 427.942C1838.03 429.078 1837.32 431.092 1837.1 433.985ZM1888.2 447C1887.53 447 1887.2 446.668 1887.2 446.004V424.754C1887.2 424.09 1887.53 423.758 1888.2 423.758H1890.05C1890.72 423.758 1891.05 424.09 1891.05 424.754V426.525H1891.14C1892.1 425.463 1893.14 424.673 1894.26 424.157C1895.38 423.64 1896.46 423.382 1897.49 423.382C1899.4 423.382 1900.86 423.861 1901.88 424.821C1902.91 425.765 1903.57 426.717 1903.87 427.676H1903.96C1904.77 426.466 1905.79 425.448 1907.03 424.621C1908.27 423.795 1909.59 423.382 1910.99 423.382C1913.34 423.382 1915.11 424.142 1916.31 425.662C1917.5 427.167 1918.1 429.233 1918.1 431.86V446.004C1918.1 446.668 1917.77 447 1917.1 447H1915.2C1914.54 447 1914.2 446.668 1914.2 446.004V433.143C1914.2 430.251 1913.84 428.384 1913.12 427.543C1912.4 426.687 1911.28 426.259 1909.78 426.259C1908.3 426.259 1907.07 426.894 1906.08 428.163C1905.09 429.417 1904.6 431.314 1904.6 433.852V446.004C1904.6 446.668 1904.27 447 1903.6 447H1901.7C1901.03 447 1900.7 446.668 1900.7 446.004V433.143C1900.7 430.251 1900.34 428.384 1899.62 427.543C1898.89 426.687 1897.78 426.259 1896.27 426.259C1894.8 426.259 1893.57 426.835 1892.58 427.986C1891.59 429.122 1891.1 431.077 1891.1 433.852V446.004C1891.1 446.668 1890.76 447 1890.1 447H1888.2Z" fill="#324054"/>
<path d="M493.999 267.498C493.999 393.138 392.146 494.99 266.498 494.99C140.853 494.99 39 393.138 39 267.498C39 141.859 140.853 40 266.498 40C392.146 40 493.999 141.859 493.999 267.498Z" fill="#00AEEF"/>
<path d="M443.672 279.281C443.672 276.168 446.191 273.645 449.304 273.645V271.392C446.191 271.392 443.672 268.87 443.672 265.756C443.672 262.642 446.191 260.119 449.304 260.119V256.476C449.304 256.476 416.831 255.702 416.831 223.997H145.414C145.414 223.997 146.188 256.476 111.391 256.476V260.119C114.5 260.119 117.029 262.642 117.029 265.756C117.029 268.87 114.5 271.392 111.391 271.392V273.645C114.5 273.645 117.029 276.168 117.029 279.281C117.029 282.391 114.5 284.914 111.391 284.914V287.167C114.5 287.167 117.029 289.689 117.029 292.805C117.029 295.916 114.5 298.44 111.391 298.44V300.698C114.5 300.698 117.029 303.215 117.029 306.328C117.029 309.442 114.5 311.965 111.391 311.965V314.219C114.5 314.219 117.029 316.741 117.029 319.854C117.029 322.967 114.5 325.49 111.391 325.49V327.743C114.5 327.743 117.029 330.266 117.029 333.379C117.029 336.492 114.5 339.015 111.391 339.015V341.268C114.5 341.268 117.029 343.791 117.029 346.904C117.029 350.017 114.5 352.541 111.391 352.541V356.228C111.391 356.228 145.414 357.775 145.414 388.701H416.831C416.831 388.701 417.604 356.228 449.304 356.228V352.541C446.191 352.541 443.672 350.017 443.672 346.904C443.672 343.791 446.191 341.268 449.304 341.268V339.015C446.191 339.015 443.672 336.492 443.672 333.379C443.672 330.266 446.191 327.743 449.304 327.743V325.49C446.191 325.49 443.672 322.967 443.672 319.854C443.672 316.741 446.191 314.219 449.304 314.219V311.965C446.191 311.965 443.672 309.442 443.672 306.328C443.672 303.216 446.191 300.698 449.304 300.698V298.44C446.191 298.44 443.672 295.916 443.672 292.805C443.672 289.689 446.191 287.167 449.304 287.167V284.914C446.191 284.914 443.672 282.391 443.672 279.281Z" fill="#E0915F"/>
<path d="M441.562 276.344C441.562 273.232 444.078 270.709 447.19 270.709V268.455C444.079 268.455 441.562 265.932 441.562 262.82C441.562 259.707 444.078 257.184 447.19 257.184V253.54C447.19 253.54 414.717 252.766 414.717 221.061H143.3C143.3 221.061 144.076 253.54 109.277 253.54V257.184C112.388 257.184 114.91 259.707 114.91 262.82C114.91 265.932 112.388 268.455 109.277 268.455V270.709C112.388 270.709 114.91 273.232 114.91 276.344C114.91 279.454 112.388 281.977 109.277 281.977V284.23C112.388 284.23 114.91 286.753 114.91 289.869C114.91 292.98 112.388 295.502 109.277 295.502V297.763C112.388 297.763 114.91 300.279 114.91 303.393C114.91 306.506 112.388 309.029 109.277 309.029V311.282C112.388 311.282 114.91 313.804 114.91 316.916C114.91 320.031 112.388 322.553 109.277 322.553V324.807C112.388 324.807 114.91 327.329 114.91 330.442C114.91 333.555 112.388 336.078 109.277 336.078V338.331C112.388 338.331 114.91 340.853 114.91 343.967C114.91 347.081 112.388 349.603 109.277 349.603V353.291C109.277 353.291 143.3 354.84 143.3 385.765H414.717C414.717 385.765 415.494 353.291 447.19 353.291V349.603C444.078 349.603 441.562 347.081 441.562 343.967C441.562 340.853 444.078 338.331 447.19 338.331V336.078C444.078 336.078 441.562 333.555 441.562 330.442C441.562 327.329 444.078 324.807 447.19 324.807V322.553C444.078 322.553 441.562 320.031 441.562 316.916C441.562 313.804 444.078 311.282 447.19 311.282V309.029C444.078 309.029 441.562 306.506 441.562 303.393C441.562 300.279 444.078 297.763 447.19 297.763V295.502C444.078 295.502 441.562 292.98 441.562 289.869C441.562 286.753 444.078 284.23 447.19 284.23V281.977C444.078 281.977 441.562 279.454 441.562 276.344Z" fill="#FFCE67"/>
<path d="M160.226 366.788L161.961 370.291L165.826 370.852L163.027 373.582L163.69 377.44L160.226 375.617L156.768 377.44L157.421 373.582L154.621 370.852L158.498 370.291L160.226 366.788Z" fill="#DB6D5B"/>
<path d="M173.585 366.788L175.32 370.291L179.194 370.852L176.393 373.582L177.049 377.44L173.585 375.617L170.129 377.44L170.784 373.582L167.988 370.852L171.856 370.291L173.585 366.788Z" fill="#DB6D5B"/>
<path d="M186.95 366.788L188.681 370.291L192.552 370.852L189.753 373.582L190.41 377.44L186.95 375.617L183.483 377.44L184.146 373.582L181.344 370.852L185.216 370.291L186.95 366.788Z" fill="#DB6D5B"/>
<path d="M200.308 366.788L202.045 370.291L205.913 370.852L203.112 373.582L203.77 377.44L200.308 375.617L196.845 377.44L197.508 373.582L194.703 370.852L198.576 370.291L200.308 366.788Z" fill="#DB6D5B"/>
<path d="M213.667 366.788L215.406 370.291L219.275 370.852L216.472 373.582L217.131 377.44L213.667 375.617L210.209 377.44L210.869 373.582L208.066 370.852L211.937 370.291L213.667 366.788Z" fill="#DB6D5B"/>
<path d="M227.028 366.788L228.76 370.291L232.63 370.852L229.825 373.582L230.486 377.44L227.028 375.617L223.56 377.44L224.23 373.582L221.418 370.852L225.297 370.291L227.028 366.788Z" fill="#DB6D5B"/>
<path d="M240.384 366.788L242.121 370.291L245.991 370.852L243.191 373.582L243.854 377.44L240.384 375.617L236.921 377.44L237.586 373.582L234.785 370.852L238.655 370.291L240.384 366.788Z" fill="#DB6D5B"/>
<path d="M240.384 366.788L242.115 370.291L245.987 370.852L243.186 373.582L243.848 377.44L240.384 375.617L236.921 377.44L237.577 373.582L234.777 370.852L238.655 370.291L240.384 366.788Z" fill="#DB6D5B"/>
<path d="M253.744 366.788L255.477 370.291L259.351 370.852L256.551 373.582L257.207 377.44L253.744 375.617L250.281 377.44L250.942 373.582L248.141 370.852L252.013 370.291L253.744 366.788Z" fill="#DB6D5B"/>
<path d="M267.104 366.788L268.838 370.291L272.71 370.852L269.91 373.582L270.569 377.44L267.104 375.617L263.644 377.44L264.303 373.582L261.504 370.852L265.372 370.291L267.104 366.788Z" fill="#DB6D5B"/>
<path d="M280.458 366.788L282.198 370.291L286.066 370.852L283.265 373.582L283.922 377.44L280.458 375.617L277.001 377.44L277.664 373.582L274.859 370.852L278.729 370.291L280.458 366.788Z" fill="#DB6D5B"/>
<path d="M293.818 366.788L295.556 370.291L299.425 370.852L296.625 373.582L297.289 377.44L293.818 375.617L290.364 377.44L291.027 373.582L288.223 370.852L292.094 370.291L293.818 366.788Z" fill="#DB6D5B"/>
<path d="M307.183 366.788L308.912 370.291L312.783 370.852L309.982 373.582L310.646 377.44L307.183 375.617L303.719 377.44L304.386 373.582L301.574 370.852L305.449 370.291L307.183 366.788Z" fill="#DB6D5B"/>
<path d="M320.542 366.788L322.277 370.291L326.148 370.852L323.345 373.582L324.008 377.44L320.542 375.617L317.077 377.44L317.746 373.582L314.941 370.852L318.811 370.291L320.542 366.788Z" fill="#DB6D5B"/>
<path d="M320.535 366.788L322.268 370.291L326.14 370.852L323.338 373.582L324.003 377.44L320.535 375.617L317.075 377.44L317.736 373.582L314.934 370.852L318.808 370.291L320.535 366.788Z" fill="#DB6D5B"/>
<path d="M333.898 366.788L335.633 370.291L339.501 370.852L336.706 373.582L337.364 377.44L333.898 375.617L330.439 377.44L331.098 373.582L328.301 370.852L332.17 370.291L333.898 366.788Z" fill="#DB6D5B"/>
<path d="M347.259 366.788L348.996 370.291L352.865 370.852L350.066 373.582L350.723 377.44L347.259 375.617L343.798 377.44L344.461 373.582L341.656 370.852L345.527 370.291L347.259 366.788Z" fill="#DB6D5B"/>
<path d="M360.618 366.788L362.352 370.291L366.226 370.852L363.42 373.582L364.08 377.44L360.618 375.617L357.155 377.44L357.822 373.582L355.016 370.852L358.887 370.291L360.618 366.788Z" fill="#DB6D5B"/>
<path d="M373.972 366.788L375.708 370.291L379.58 370.852L376.774 373.582L377.437 377.44L373.972 375.617L370.509 377.44L371.173 373.582L368.367 370.852L372.242 370.291L373.972 366.788Z" fill="#DB6D5B"/>
<path d="M387.34 366.788L389.07 370.291L392.941 370.852L390.132 373.582L390.801 377.44L387.34 375.617L383.871 377.44L384.54 373.582L381.734 370.852L385.609 370.291L387.34 366.788Z" fill="#DB6D5B"/>
<path d="M400.697 366.788L402.428 370.291L406.3 370.852L403.5 373.582L404.165 377.44L400.697 375.617L397.232 377.44L397.896 373.582L395.098 370.852L398.97 370.291L400.697 366.788Z" fill="#DB6D5B"/>
<path d="M160.226 229.186L161.961 232.69L165.826 233.258L163.027 235.986L163.69 239.842L160.226 238.019L156.768 239.842L157.421 235.986L154.621 233.258L158.498 232.69L160.226 229.186Z" fill="#DB6D5B"/>
<path d="M173.585 229.186L175.32 232.69L179.194 233.258L176.393 235.986L177.049 239.842L173.585 238.019L170.129 239.842L170.784 235.986L167.988 233.258L171.856 232.69L173.585 229.186Z" fill="#DB6D5B"/>
<path d="M186.95 229.186L188.681 232.69L192.552 233.258L189.753 235.986L190.41 239.842L186.95 238.019L183.483 239.842L184.146 235.986L181.344 233.258L185.216 232.69L186.95 229.186Z" fill="#DB6D5B"/>
<path d="M200.308 229.186L202.045 232.69L205.913 233.258L203.112 235.986L203.77 239.842L200.308 238.019L196.845 239.842L197.508 235.986L194.703 233.258L198.576 232.69L200.308 229.186Z" fill="#DB6D5B"/>
<path d="M213.667 229.186L215.406 232.69L219.275 233.258L216.472 235.986L217.131 239.842L213.667 238.019L210.209 239.842L210.869 235.986L208.066 233.258L211.937 232.69L213.667 229.186Z" fill="#DB6D5B"/>
<path d="M227.028 229.186L228.76 232.69L232.63 233.258L229.825 235.986L230.486 239.842L227.028 238.019L223.56 239.842L224.23 235.986L221.418 233.258L225.297 232.69L227.028 229.186Z" fill="#DB6D5B"/>
<path d="M240.384 229.186L242.121 232.69L245.991 233.258L243.191 235.986L243.854 239.842L240.384 238.019L236.921 239.842L237.586 235.986L234.785 233.258L238.655 232.69L240.384 229.186Z" fill="#DB6D5B"/>
<path d="M240.384 229.186L242.115 232.69L245.987 233.258L243.186 235.986L243.848 239.842L240.384 238.019L236.921 239.842L237.577 235.986L234.777 233.258L238.655 232.69L240.384 229.186Z" fill="#DB6D5B"/>
<path d="M253.744 229.186L255.477 232.69L259.351 233.258L256.551 235.986L257.207 239.842L253.744 238.019L250.281 239.842L250.942 235.986L248.141 233.258L252.013 232.69L253.744 229.186Z" fill="#DB6D5B"/>
<path d="M267.104 229.186L268.838 232.69L272.71 233.258L269.91 235.986L270.569 239.842L267.104 238.019L263.644 239.842L264.303 235.986L261.504 233.258L265.372 232.69L267.104 229.186Z" fill="#DB6D5B"/>
<path d="M280.458 229.186L282.198 232.69L286.066 233.258L283.265 235.986L283.922 239.842L280.458 238.019L277.001 239.842L277.664 235.986L274.859 233.258L278.729 232.69L280.458 229.186Z" fill="#DB6D5B"/>
<path d="M293.818 229.186L295.556 232.69L299.425 233.258L296.625 235.986L297.289 239.842L293.818 238.019L290.364 239.842L291.027 235.986L288.223 233.258L292.094 232.69L293.818 229.186Z" fill="#DB6D5B"/>
<path d="M307.183 229.186L308.912 232.69L312.783 233.258L309.982 235.986L310.646 239.842L307.183 238.019L303.719 239.842L304.386 235.986L301.574 233.258L305.449 232.69L307.183 229.186Z" fill="#DB6D5B"/>
<path d="M320.542 229.186L322.277 232.69L326.148 233.258L323.345 235.986L324.008 239.842L320.542 238.019L317.077 239.842L317.746 235.986L314.941 233.258L318.811 232.69L320.542 229.186Z" fill="#DB6D5B"/>
<path d="M320.535 229.186L322.268 232.69L326.14 233.258L323.338 235.986L324.003 239.842L320.535 238.019L317.075 239.842L317.736 235.986L314.934 233.258L318.808 232.69L320.535 229.186Z" fill="#DB6D5B"/>
<path d="M333.898 229.186L335.633 232.69L339.501 233.258L336.706 235.986L337.364 239.842L333.898 238.019L330.439 239.842L331.098 235.986L328.301 233.258L332.17 232.69L333.898 229.186Z" fill="#DB6D5B"/>
<path d="M347.259 229.186L348.996 232.69L352.865 233.258L350.066 235.986L350.723 239.842L347.259 238.019L343.798 239.842L344.461 235.986L341.656 233.258L345.527 232.69L347.259 229.186Z" fill="#DB6D5B"/>
<path d="M360.618 229.186L362.352 232.69L366.226 233.258L363.42 235.986L364.08 239.842L360.618 238.019L357.155 239.842L357.822 235.986L355.016 233.258L358.887 232.69L360.618 229.186Z" fill="#DB6D5B"/>
<path d="M373.972 229.186L375.708 232.69L379.58 233.258L376.774 235.986L377.437 239.842L373.972 238.019L370.509 239.842L371.173 235.986L368.367 233.258L372.242 232.69L373.972 229.186Z" fill="#DB6D5B"/>
<path d="M387.34 229.186L389.07 232.69L392.941 233.258L390.132 235.986L390.801 239.842L387.34 238.019L383.871 239.842L384.54 235.986L381.734 233.258L385.609 232.69L387.34 229.186Z" fill="#DB6D5B"/>
<path d="M400.697 229.186L402.428 232.69L406.3 233.258L403.5 235.986L404.165 239.842L400.697 238.019L397.232 239.842L397.896 235.986L395.098 233.258L398.97 232.69L400.697 229.186Z" fill="#DB6D5B"/>
<path d="M412.577 360.516H146.402V362.345H412.577V360.516Z" fill="#DB6D5B"/>
<path d="M412.577 244.092H146.402V245.915H412.577V244.092Z" fill="#DB6D5B"/>
<path d="M229.607 255.373L226.471 270.118H230.043C230.278 270.118 230.43 270.157 230.514 270.223C230.597 270.291 230.64 270.394 230.64 270.526C230.64 270.701 230.565 270.85 230.431 270.973C230.291 271.096 230.084 271.16 229.812 271.16H221.833C221.605 271.16 221.442 271.122 221.364 271.048C221.287 270.973 221.246 270.873 221.246 270.742C221.246 270.573 221.312 270.427 221.448 270.306C221.587 270.18 221.796 270.118 222.07 270.118H225.404L228.237 256.823L224.598 257.887C224.426 257.939 224.293 257.965 224.214 257.965C224.113 257.965 224.025 257.928 223.954 257.847C223.88 257.767 223.841 257.672 223.841 257.558C223.841 257.417 223.886 257.288 223.978 257.178C224.071 257.056 224.242 256.964 224.507 256.89L229.607 255.373Z" fill="#2C2E36"/>
<path d="M247.668 262.093L247.112 264.669C246.635 266.92 245.735 268.691 244.395 269.991C243.339 271.011 242.181 271.524 240.933 271.524C240.107 271.524 239.414 271.327 238.854 270.927C238.293 270.532 237.915 270.016 237.721 269.377C237.44 268.468 237.297 267.611 237.297 266.8C237.297 266.175 237.383 265.461 237.543 264.669L238.105 262.09C238.577 259.835 239.488 258.054 240.834 256.757C241.884 255.732 243.03 255.219 244.28 255.219C245.117 255.219 245.813 255.417 246.365 255.818C246.921 256.214 247.293 256.738 247.492 257.392C247.771 258.3 247.918 259.158 247.918 259.961C247.917 260.58 247.834 261.293 247.668 262.093ZM246.592 262.227C246.721 261.592 246.788 261.003 246.788 260.47C246.788 259.335 246.676 258.481 246.446 257.902C246.213 257.323 245.904 256.91 245.524 256.658C245.144 256.406 244.671 256.276 244.108 256.276C242.936 256.276 241.889 256.876 240.981 258.077C240.071 259.275 239.45 260.66 239.116 262.228L238.62 264.521C238.489 265.166 238.425 265.754 238.425 266.282C238.425 267.409 238.537 268.256 238.769 268.842C239.005 269.423 239.309 269.839 239.689 270.1C240.071 270.357 240.542 270.481 241.104 270.481C242.279 270.481 243.322 269.884 244.234 268.684C245.144 267.477 245.765 266.092 246.096 264.521L246.592 262.227Z" fill="#2C2E36"/>
<path d="M260.096 255.373L256.956 270.118H260.533C260.762 270.118 260.922 270.157 261.005 270.223C261.084 270.291 261.127 270.394 261.127 270.526C261.127 270.701 261.055 270.85 260.921 270.973C260.781 271.096 260.568 271.16 260.298 271.16H252.316C252.091 271.16 251.931 271.122 251.852 271.048C251.77 270.973 251.727 270.873 251.727 270.742C251.727 270.573 251.793 270.427 251.936 270.306C252.075 270.18 252.277 270.118 252.555 270.118H255.891L258.722 256.823L255.083 257.887C254.913 257.939 254.781 257.965 254.695 257.965C254.598 257.965 254.511 257.928 254.439 257.847C254.363 257.767 254.329 257.672 254.329 257.558C254.329 257.417 254.375 257.288 254.461 257.178C254.555 257.056 254.727 256.964 254.988 256.89L260.096 255.373Z" fill="#2C2E36"/>
<path d="M278.154 262.093L277.595 264.669C277.125 266.92 276.22 268.691 274.882 269.991C273.824 271.011 272.668 271.524 271.42 271.524C270.594 271.524 269.902 271.327 269.339 270.927C268.783 270.532 268.404 270.016 268.21 269.377C267.929 268.468 267.785 267.611 267.785 266.8C267.785 266.175 267.867 265.461 268.031 264.669L268.594 262.09C269.063 259.835 269.972 258.054 271.322 256.757C272.372 255.732 273.519 255.219 274.77 255.219C275.607 255.219 276.3 255.417 276.854 255.818C277.405 256.214 277.781 256.738 277.981 257.392C278.258 258.3 278.404 259.158 278.404 259.961C278.405 260.58 278.317 261.293 278.154 262.093ZM277.078 262.227C277.21 261.592 277.277 261.003 277.277 260.47C277.277 259.335 277.162 258.481 276.93 257.902C276.695 257.323 276.391 256.91 276.012 256.658C275.63 256.406 275.154 256.276 274.597 256.276C273.421 256.276 272.375 256.876 271.467 258.077C270.553 259.275 269.935 260.66 269.606 262.228L269.109 264.521C268.978 265.166 268.909 265.754 268.909 266.282C268.909 267.409 269.027 268.256 269.258 268.842C269.489 269.423 269.8 269.839 270.176 270.1C270.553 270.357 271.025 270.481 271.589 270.481C272.768 270.481 273.807 269.884 274.72 268.684C275.63 267.477 276.251 266.092 276.582 264.521L277.078 262.227Z" fill="#2C2E36"/>
<path d="M290.582 255.373L287.444 270.118H291.021C291.251 270.118 291.406 270.157 291.485 270.223C291.566 270.291 291.61 270.394 291.61 270.526C291.61 270.701 291.539 270.85 291.406 270.973C291.268 271.096 291.057 271.16 290.787 271.16H282.808C282.581 271.16 282.421 271.122 282.338 271.048C282.257 270.973 282.215 270.873 282.215 270.742C282.215 270.573 282.282 270.427 282.423 270.306C282.562 270.18 282.771 270.118 283.046 270.118H286.378L289.21 256.823L285.575 257.887C285.396 257.939 285.268 257.965 285.187 257.965C285.088 257.965 284.999 257.928 284.923 257.847C284.85 257.767 284.813 257.672 284.813 257.558C284.813 257.417 284.856 257.288 284.949 257.178C285.041 257.056 285.216 256.964 285.478 256.89L290.582 255.373Z" fill="#2C2E36"/>
<path d="M297.661 270.118H305.665C305.77 269.615 305.871 269.314 305.961 269.225C306.096 269.082 306.256 269.011 306.435 269.011C306.548 269.011 306.646 269.048 306.722 269.122C306.807 269.2 306.847 269.286 306.847 269.386C306.847 269.466 306.836 269.574 306.807 269.706L306.492 271.16H296.422L296.75 269.624C299.43 267.589 301.979 265.593 304.401 263.633C305.54 262.69 306.331 261.982 306.776 261.511C307.219 261.04 307.525 260.615 307.692 260.231C307.859 259.846 307.949 259.456 307.949 259.069C307.949 258.292 307.66 257.633 307.098 257.091C306.529 256.549 305.817 256.277 304.945 256.277C304.037 256.277 303.173 256.535 302.357 257.045C301.536 257.558 300.936 258.206 300.559 258.991C300.391 259.33 300.173 259.503 299.905 259.503C299.789 259.503 299.692 259.465 299.617 259.39C299.536 259.313 299.496 259.227 299.496 259.119C299.496 258.834 299.714 258.41 300.144 257.84C300.781 257.004 301.547 256.362 302.447 255.902C303.343 255.447 304.262 255.22 305.194 255.22C306.285 255.22 307.19 255.578 307.919 256.295C308.657 257.011 309.026 257.871 309.026 258.88C309.026 259.362 308.921 259.856 308.716 260.36C308.515 260.865 308.175 261.378 307.7 261.897C307.224 262.419 306.423 263.14 305.297 264.066C302.208 266.604 299.667 268.598 297.674 270.046L297.661 270.118Z" fill="#2C2E36"/>
<path d="M323.653 257.09L323.749 256.626H316.314L316.115 257.546C316.055 257.795 315.966 257.976 315.842 258.084C315.729 258.193 315.589 258.243 315.427 258.243C315.309 258.243 315.215 258.205 315.132 258.134C315.058 258.059 315.016 257.968 315.016 257.859C315.016 257.787 315.032 257.683 315.058 257.552L315.487 255.582H325.044L324.66 257.233L317.638 270.661C317.515 270.876 317.409 271.019 317.304 271.09C317.199 271.159 317.08 271.194 316.959 271.194C316.837 271.194 316.735 271.156 316.658 271.079C316.586 271.008 316.546 270.907 316.546 270.781C316.546 270.687 316.604 270.543 316.711 270.34L323.653 257.09Z" fill="#2C2E36"/>
<path d="M336.316 255.373L333.176 270.118H336.747C336.984 270.118 337.136 270.157 337.217 270.223C337.299 270.291 337.339 270.394 337.339 270.526C337.339 270.701 337.27 270.85 337.136 270.973C336.993 271.096 336.782 271.16 336.509 271.16H328.533C328.31 271.16 328.148 271.122 328.068 271.048C327.986 270.973 327.949 270.873 327.949 270.742C327.949 270.573 328.01 270.427 328.154 270.306C328.289 270.18 328.496 270.118 328.773 270.118H332.109L334.938 256.823L331.303 257.887C331.131 257.939 331 257.965 330.918 257.965C330.816 257.965 330.73 257.928 330.655 257.847C330.582 257.767 330.543 257.672 330.543 257.558C330.543 257.417 330.584 257.288 330.677 257.178C330.768 257.056 330.946 256.964 331.205 256.89L336.316 255.373Z" fill="#2C2E36"/>
<path d="M384.703 163.717C383.149 161.021 384.064 157.577 386.765 156.021L385.635 154.068C382.94 155.625 379.494 154.702 377.939 152.007C376.384 149.31 377.302 145.862 380 144.304L378.184 141.152C378.184 141.152 349.665 156.72 333.815 129.26L98.7586 264.972C98.7586 264.972 115.671 292.71 85.5352 310.113L87.3521 313.266C90.0487 311.707 93.4989 312.635 95.0543 315.33C96.6128 318.024 95.6867 321.472 92.9944 323.029L94.1183 324.979C96.81 323.425 100.265 324.344 101.817 327.043C103.378 329.737 102.446 333.185 99.7526 334.743L100.881 336.692C103.575 335.138 107.025 336.056 108.584 338.752C110.137 341.445 109.209 344.897 106.516 346.457L107.647 348.405C110.334 346.852 113.787 347.769 115.345 350.466C116.902 353.158 115.976 356.611 113.281 358.17L114.407 360.12C117.099 358.566 120.55 359.483 122.109 362.179C123.659 364.878 122.733 368.324 120.046 369.877L121.168 371.832C123.864 370.278 127.314 371.197 128.871 373.891C130.422 376.586 129.495 380.037 126.803 381.591L127.929 383.546C130.623 381.987 134.075 382.91 135.63 385.604C137.187 388.304 136.259 391.75 133.567 393.303L135.411 396.496C135.411 396.496 165.648 380.827 181.11 407.608L416.168 271.9C416.168 271.9 400.6 243.389 428.051 227.539L426.21 224.347C423.514 225.902 420.07 224.979 418.514 222.281C416.957 219.586 417.881 216.141 420.574 214.584L419.451 212.632C416.753 214.188 413.305 213.262 411.754 210.568C410.196 207.874 411.115 204.429 413.815 202.872L412.685 200.92C409.992 202.479 406.545 201.553 404.992 198.858C403.433 196.161 404.355 192.717 407.053 191.161L405.925 189.21C403.229 190.765 399.787 189.837 398.227 187.144C396.672 184.449 397.592 181.005 400.29 179.445L399.164 177.496C396.47 179.051 393.021 178.127 391.465 175.432C389.906 172.734 390.83 169.289 393.525 167.733L392.399 165.779C389.699 167.337 386.259 166.413 384.703 163.717Z" fill="#E0915F"/>
<path d="M382.871 161.84C381.314 159.143 382.236 155.7 384.93 154.147L383.805 152.191C381.112 153.749 377.666 152.825 376.105 150.131C374.55 147.433 375.472 143.985 378.171 142.43L376.347 139.276C376.347 139.276 347.836 154.844 331.982 127.384L96.927 263.093C96.927 263.093 113.84 290.835 83.6992 308.231L85.5223 311.39C88.2177 309.83 91.6629 310.753 93.2171 313.454C94.7775 316.143 93.8495 319.595 91.1597 321.147L92.2824 323.103C94.979 321.544 98.4255 322.466 99.9827 325.162C101.536 327.855 100.613 331.307 97.9198 332.86L99.0486 334.81C101.74 333.257 105.185 334.179 106.743 336.874C108.298 339.575 107.38 343.02 104.684 344.574L105.812 346.53C108.503 344.97 111.949 345.893 113.508 348.587C115.064 351.283 114.14 354.735 111.445 356.287L112.574 358.237C115.268 356.684 118.715 357.607 120.273 360.303C121.828 363.002 120.903 366.448 118.211 368.002L119.334 369.95C122.029 368.397 125.474 369.32 127.034 372.015C128.59 374.709 127.665 378.155 124.975 379.715L126.101 381.665C128.793 380.11 132.241 381.033 133.794 383.728C135.353 386.422 134.427 389.874 131.736 391.428L133.577 394.615C133.577 394.615 163.814 378.946 179.282 405.732L414.338 270.021C414.338 270.021 398.773 241.509 426.225 225.659L424.381 222.466C421.683 224.023 418.239 223.099 416.681 220.402C415.13 217.708 416.048 214.261 418.744 212.705L417.618 210.753C414.916 212.309 411.477 211.384 409.921 208.689C408.364 205.994 409.288 202.55 411.982 200.992L410.854 199.042C408.159 200.6 404.712 199.673 403.159 196.98C401.603 194.281 402.523 190.838 405.223 189.282L404.094 187.329C401.398 188.887 397.953 187.958 396.394 185.266C394.842 182.571 395.763 179.125 398.458 177.567L397.335 175.617C394.634 177.169 391.187 176.247 389.631 173.552C388.079 170.854 388.998 167.41 391.692 165.852L390.568 163.902C387.871 165.458 384.427 164.534 382.871 161.84Z" fill="#FBE1BA"/>
<path d="M184.449 380.828L187.703 382.996L191.33 381.557L190.278 385.318L192.777 388.329L188.863 388.483L186.78 391.791L185.416 388.122L181.633 387.159L184.704 384.728L184.449 380.828Z" fill="#E0915F"/>
<path d="M196.015 374.155L199.268 376.323L202.909 374.872L201.844 378.639L204.343 381.649L200.431 381.804L198.35 385.112L196.989 381.442L193.203 380.473L196.266 378.054L196.015 374.155Z" fill="#E0915F"/>
<path d="M207.594 367.472L210.844 369.637L214.48 368.193L213.419 371.954L215.919 374.964L212.008 375.12L209.922 378.433L208.561 374.758L204.773 373.795L207.838 371.374L207.594 367.472Z" fill="#E0915F"/>
<path d="M219.165 360.791L222.418 362.958L226.051 361.514L224.986 365.275L227.486 368.29L223.579 368.439L221.492 371.753L220.136 368.078L216.344 367.121L219.411 364.691L219.165 360.791Z" fill="#E0915F"/>
<path d="M230.725 354.112L233.979 356.278L237.616 354.835L236.554 358.6L239.052 361.606L235.144 361.76L233.055 365.074L231.703 361.399L227.906 360.435L230.974 358.011L230.725 354.112Z" fill="#E0915F"/>
<path d="M242.303 347.431L245.552 349.598L249.191 348.153L248.125 351.916L250.625 354.933L246.717 355.081L244.629 358.394L243.279 354.719L239.48 353.761L242.553 351.33L242.303 347.431Z" fill="#E0915F"/>
<path d="M253.868 340.752L257.114 342.919L260.753 341.475L259.689 345.235L262.196 348.245L258.283 348.4L256.19 351.715L254.841 348.039L251.047 347.076L254.118 344.65L253.868 340.752Z" fill="#E0915F"/>
<path d="M253.864 340.757L257.116 342.919L260.751 341.48L259.69 345.24L262.19 348.25L258.28 348.399L256.191 351.714L254.834 348.044L251.043 347.08L254.12 344.65L253.864 340.757Z" fill="#E0915F"/>
<path d="M265.436 334.071L268.686 336.237L272.32 334.793L271.264 338.556L273.764 341.564L269.85 341.72L267.762 345.033L266.405 341.359L262.621 340.396L265.688 337.97L265.436 334.071Z" fill="#E0915F"/>
<path d="M277.002 327.392L280.258 329.56L283.895 328.115L282.835 331.877L285.331 334.885L281.416 335.041L279.337 338.347L277.978 334.68L274.188 333.715L277.253 331.29L277.002 327.392Z" fill="#E0915F"/>
<path d="M288.57 320.713L291.832 322.874L295.467 321.436L294.403 325.196L296.903 328.206L292.992 328.361L290.908 331.67L289.551 328L285.758 327.037L288.827 324.613L288.57 320.713Z" fill="#E0915F"/>
<path d="M300.143 314.033L303.394 316.201L307.032 314.755L305.966 318.516L308.467 321.526L304.557 321.682L302.477 324.989L301.116 321.32L297.328 320.357L300.395 317.932L300.143 314.033Z" fill="#E0915F"/>
<path d="M311.71 307.354L314.966 309.521L318.597 308.077L317.536 311.838L320.041 314.848L316.127 315.002L314.04 318.31L312.685 314.642L308.891 313.678L311.962 311.253L311.71 307.354Z" fill="#E0915F"/>
<path d="M323.288 300.675L326.537 302.843L330.176 301.397L329.114 305.159L331.611 308.169L327.701 308.323L325.612 311.631L324.257 307.962L320.469 306.998L323.537 304.574L323.288 300.675Z" fill="#E0915F"/>
<path d="M323.285 300.675L326.537 302.843L330.173 301.397L329.11 305.159L331.613 308.169L327.7 308.323L325.613 311.631L324.254 307.962L320.465 306.998L323.539 304.574L323.285 300.675Z" fill="#E0915F"/>
<path d="M334.85 293.997L338.103 296.161L341.741 294.716L340.679 298.478L343.178 301.489L339.269 301.643L337.183 304.953L335.828 301.282L332.035 300.319L335.106 297.894L334.85 293.997Z" fill="#E0915F"/>
<path d="M346.42 287.316L349.676 289.478L353.312 288.034L352.25 291.8L354.754 294.81L350.841 294.963L348.754 298.271L347.4 294.598L343.605 293.637L346.676 291.212L346.42 287.316Z" fill="#E0915F"/>
<path d="M357.999 280.636L361.247 282.799L364.886 281.359L363.82 285.118L366.317 288.131L362.411 288.284L360.326 291.595L358.972 287.922L355.18 286.959L358.247 284.534L357.999 280.636Z" fill="#E0915F"/>
<path d="M369.559 273.955L372.817 276.119L376.449 274.675L375.392 278.441L377.89 281.449L373.976 281.604L371.892 284.915L370.535 281.242L366.742 280.282L369.818 277.852L369.559 273.955Z" fill="#E0915F"/>
<path d="M381.133 267.275L384.384 269.443L388.02 267.998L386.952 271.762L389.459 274.769L385.549 274.924L383.461 278.235L382.11 274.561L378.312 273.6L381.385 271.174L381.133 267.275Z" fill="#E0915F"/>
<path d="M392.706 260.597L395.951 262.763L399.591 261.318L398.526 265.08L401.037 268.087L397.117 268.245L395.028 271.553L393.679 267.881L389.887 266.917L392.959 264.493L392.706 260.597Z" fill="#E0915F"/>
<path d="M115.654 261.671L118.908 263.836L122.54 262.392L121.478 266.154L123.98 269.167L120.068 269.317L117.985 272.627L116.625 268.957L112.832 267.993L115.907 265.566L115.654 261.671Z" fill="#E0915F"/>
<path d="M127.217 254.991L130.474 257.159L134.111 255.707L133.048 259.474L135.548 262.484L131.637 262.639L129.552 265.948L128.193 262.278L124.41 261.312L127.476 258.887L127.217 254.991Z" fill="#E0915F"/>
<path d="M138.791 248.309L142.043 250.475L145.681 249.029L144.618 252.796L147.118 255.801L143.21 255.957L141.12 259.268L139.765 255.595L135.973 254.635L139.04 252.21L138.791 248.309Z" fill="#E0915F"/>
<path d="M150.364 241.63L153.62 243.797L157.255 242.353L156.19 246.116L158.691 249.126L154.78 249.278L152.693 252.589L151.337 248.917L147.551 247.956L150.613 245.529L150.364 241.63Z" fill="#E0915F"/>
<path d="M161.93 234.95L165.187 237.118L168.823 235.669L167.756 239.433L170.256 242.446L166.346 242.597L164.262 245.906L162.905 242.238L159.113 241.274L162.181 238.849L161.93 234.95Z" fill="#E0915F"/>
<path d="M173.506 228.267L176.752 230.435L180.385 228.99L179.326 232.756L181.826 235.766L177.918 235.916L175.827 239.23L174.479 235.554L170.68 234.596L173.752 232.169L173.506 228.267Z" fill="#E0915F"/>
<path d="M185.073 221.592L188.326 223.758L191.961 222.314L190.9 226.075L193.405 229.084L189.491 229.24L187.401 232.551L186.049 228.875L182.258 227.915L185.327 225.49L185.073 221.592Z" fill="#E0915F"/>
<path d="M185.067 221.591L188.321 223.757L191.952 222.314L190.895 226.077L193.397 229.083L189.485 229.239L187.398 232.55L186.037 228.881L182.25 227.916L185.324 225.489L185.067 221.591Z" fill="#E0915F"/>
<path d="M196.635 214.913L199.886 217.08L203.527 215.635L202.463 219.398L204.962 222.406L201.053 222.562L198.962 225.872L197.609 222.202L193.82 221.235L196.895 218.811L196.635 214.913Z" fill="#E0915F"/>
<path d="M208.208 208.229L211.463 210.399L215.101 208.951L214.039 212.715L216.537 215.725L212.627 215.877L210.54 219.188L209.186 215.519L205.391 214.555L208.46 212.131L208.208 208.229Z" fill="#E0915F"/>
<path d="M219.776 201.55L223.034 203.717L226.669 202.269L225.605 206.036L228.104 209.049L224.194 209.198L222.11 212.506L220.754 208.837L216.961 207.876L220.029 205.448L219.776 201.55Z" fill="#E0915F"/>
<path d="M231.345 194.874L234.598 197.037L238.236 195.594L237.171 199.36L239.671 202.368L235.761 202.522L233.681 205.83L232.321 202.161L228.531 201.197L231.602 198.769L231.345 194.874Z" fill="#E0915F"/>
<path d="M242.922 188.19L246.175 190.358L249.803 188.912L248.741 192.677L251.245 195.687L247.334 195.839L245.251 199.149L243.895 195.475L240.098 194.52L243.171 192.089L242.922 188.19Z" fill="#E0915F"/>
<path d="M254.488 181.512L257.745 183.678L261.377 182.234L260.319 185.996L262.817 189.008L258.902 189.161L256.818 192.471L255.463 188.798L251.672 187.835L254.74 185.413L254.488 181.512Z" fill="#E0915F"/>
<path d="M254.482 181.515L257.734 183.681L261.369 182.236L260.308 186.001L262.812 189.008L258.896 189.162L256.813 192.471L255.452 188.804L251.664 187.838L254.735 185.412L254.482 181.515Z" fill="#E0915F"/>
<path d="M266.053 174.833L269.303 177.004L272.939 175.558L271.881 179.32L274.381 182.329L270.467 182.481L268.381 185.792L267.026 182.123L263.234 181.156L266.305 178.731L266.053 174.833Z" fill="#E0915F"/>
<path d="M277.619 168.153L280.874 170.321L284.511 168.876L283.449 172.64L285.948 175.647L282.037 175.803L279.952 179.109L278.596 175.439L274.805 174.477L277.877 172.052L277.619 168.153Z" fill="#E0915F"/>
<path d="M289.195 161.474L292.449 163.637L296.08 162.196L295.018 165.959L297.519 168.971L293.608 169.122L291.524 172.432L290.171 168.76L286.375 167.8L289.445 165.372L289.195 161.474Z" fill="#E0915F"/>
<path d="M300.76 154.795L304.013 156.962L307.65 155.516L306.584 159.282L309.085 162.288L305.172 162.444L303.087 165.754L301.734 162.079L297.938 161.122L301.011 158.693L300.76 154.795Z" fill="#E0915F"/>
<path d="M312.333 148.112L315.584 150.282L319.214 148.837L318.154 152.605L320.657 155.611L316.745 155.76L314.658 159.071L313.306 155.4L309.512 154.439L312.583 152.009L312.333 148.112Z" fill="#E0915F"/>
<path d="M323.9 141.437L327.155 143.6L330.793 142.158L329.73 145.922L332.233 148.929L328.321 149.084L326.231 152.395L324.879 148.72L321.09 147.76L324.156 145.335L323.9 141.437Z" fill="#E0915F"/>
<path d="M399.85 249.218L169.344 382.305L170.257 383.886L400.763 250.799L399.85 249.218Z" fill="#E0915F"/>
<path d="M342.555 149.978L112.043 283.064L111.129 281.488L341.645 148.398L342.555 149.978Z" fill="#E0915F"/>
</svg>
