<svg width="455" height="455" viewBox="0 0 455 455" fill="none" xmlns="http://www.w3.org/2000/svg">
<path d="M454.999 227.498C454.999 353.138 353.146 454.99 227.498 454.99C101.853 454.99 0 353.138 0 227.498C0 101.859 101.853 0 227.498 0C353.146 0 454.999 101.859 454.999 227.498Z" fill="#00AEEF"/>
<path d="M404.672 239.281C404.672 236.168 407.191 233.645 410.304 233.645V231.392C407.191 231.392 404.672 228.87 404.672 225.756C404.672 222.642 407.191 220.119 410.304 220.119V216.476C410.304 216.476 377.831 215.702 377.831 183.997H106.414C106.414 183.997 107.188 216.476 72.3906 216.476V220.119C75.4996 220.119 78.0293 222.642 78.0293 225.756C78.0293 228.87 75.5002 231.392 72.3906 231.392V233.645C75.4996 233.645 78.0293 236.168 78.0293 239.281C78.0293 242.391 75.5002 244.914 72.3906 244.914V247.167C75.4996 247.167 78.0293 249.689 78.0293 252.805C78.0293 255.916 75.5002 258.44 72.3906 258.44V260.698C75.4996 260.698 78.0293 263.215 78.0293 266.328C78.0293 269.442 75.5002 271.965 72.3906 271.965V274.219C75.4996 274.219 78.0293 276.741 78.0293 279.854C78.0293 282.967 75.5002 285.49 72.3906 285.49V287.743C75.4996 287.743 78.0293 290.266 78.0293 293.379C78.0293 296.492 75.5002 299.015 72.3906 299.015V301.268C75.4996 301.268 78.0293 303.791 78.0293 306.904C78.0293 310.017 75.5002 312.541 72.3906 312.541V316.228C72.3906 316.228 106.414 317.775 106.414 348.701H377.831C377.831 348.701 378.604 316.228 410.304 316.228V312.541C407.191 312.541 404.672 310.017 404.672 306.904C404.672 303.791 407.191 301.268 410.304 301.268V299.015C407.191 299.015 404.672 296.492 404.672 293.379C404.672 290.266 407.191 287.743 410.304 287.743V285.49C407.191 285.49 404.672 282.967 404.672 279.854C404.672 276.741 407.191 274.219 410.304 274.219V271.965C407.191 271.965 404.672 269.442 404.672 266.328C404.672 263.216 407.191 260.698 410.304 260.698V258.44C407.191 258.44 404.672 255.916 404.672 252.805C404.672 249.689 407.191 247.167 410.304 247.167V244.914C407.191 244.914 404.672 242.391 404.672 239.281Z" fill="#E0915F"/>
<path d="M402.562 236.344C402.562 233.232 405.078 230.709 408.19 230.709V228.455C405.079 228.455 402.562 225.932 402.562 222.82C402.562 219.707 405.078 217.184 408.19 217.184V213.54C408.19 213.54 375.717 212.766 375.717 181.061H104.3C104.3 181.061 105.076 213.54 70.2773 213.54V217.184C73.3875 217.184 75.9098 219.707 75.9098 222.82C75.9098 225.932 73.3875 228.455 70.2773 228.455V230.709C73.3875 230.709 75.9098 233.232 75.9098 236.344C75.9098 239.454 73.3875 241.977 70.2773 241.977V244.23C73.3875 244.23 75.9098 246.753 75.9098 249.869C75.9098 252.98 73.3875 255.502 70.2773 255.502V257.763C73.3875 257.763 75.9098 260.279 75.9098 263.393C75.9098 266.506 73.3875 269.029 70.2773 269.029V271.282C73.3875 271.282 75.9098 273.804 75.9098 276.916C75.9098 280.031 73.3875 282.553 70.2773 282.553V284.807C73.3875 284.807 75.9098 287.329 75.9098 290.442C75.9098 293.555 73.3875 296.078 70.2773 296.078V298.331C73.3875 298.331 75.9098 300.853 75.9098 303.967C75.9098 307.081 73.3875 309.603 70.2773 309.603V313.291C70.2773 313.291 104.3 314.84 104.3 345.765H375.717C375.717 345.765 376.494 313.291 408.19 313.291V309.603C405.078 309.603 402.562 307.081 402.562 303.967C402.562 300.853 405.078 298.331 408.19 298.331V296.078C405.078 296.078 402.562 293.555 402.562 290.442C402.562 287.329 405.078 284.807 408.19 284.807V282.553C405.078 282.553 402.562 280.031 402.562 276.916C402.562 273.804 405.078 271.282 408.19 271.282V269.029C405.078 269.029 402.562 266.506 402.562 263.393C402.562 260.279 405.078 257.763 408.19 257.763V255.502C405.078 255.502 402.562 252.98 402.562 249.869C402.562 246.753 405.078 244.23 408.19 244.23V241.977C405.078 241.977 402.562 239.454 402.562 236.344Z" fill="#FFCE67"/>
<path d="M121.226 326.788L122.961 330.291L126.826 330.852L124.027 333.582L124.69 337.44L121.226 335.617L117.768 337.44L118.421 333.582L115.621 330.852L119.498 330.291L121.226 326.788Z" fill="#DB6D5B"/>
<path d="M134.585 326.788L136.32 330.291L140.194 330.852L137.393 333.582L138.049 337.44L134.585 335.617L131.129 337.44L131.784 333.582L128.988 330.852L132.856 330.291L134.585 326.788Z" fill="#DB6D5B"/>
<path d="M147.95 326.788L149.681 330.291L153.552 330.852L150.753 333.582L151.41 337.44L147.95 335.617L144.483 337.44L145.146 333.582L142.344 330.852L146.216 330.291L147.95 326.788Z" fill="#DB6D5B"/>
<path d="M161.308 326.788L163.045 330.291L166.913 330.852L164.112 333.582L164.77 337.44L161.308 335.617L157.845 337.44L158.508 333.582L155.703 330.852L159.576 330.291L161.308 326.788Z" fill="#DB6D5B"/>
<path d="M174.667 326.788L176.406 330.291L180.275 330.852L177.472 333.582L178.131 337.44L174.667 335.617L171.209 337.44L171.869 333.582L169.066 330.852L172.937 330.291L174.667 326.788Z" fill="#DB6D5B"/>
<path d="M188.028 326.788L189.76 330.291L193.63 330.852L190.825 333.582L191.486 337.44L188.028 335.617L184.56 337.44L185.23 333.582L182.418 330.852L186.297 330.291L188.028 326.788Z" fill="#DB6D5B"/>
<path d="M201.384 326.788L203.121 330.291L206.991 330.852L204.191 333.582L204.854 337.44L201.384 335.617L197.921 337.44L198.586 333.582L195.785 330.852L199.655 330.291L201.384 326.788Z" fill="#DB6D5B"/>
<path d="M201.384 326.788L203.115 330.291L206.987 330.852L204.186 333.582L204.848 337.44L201.384 335.617L197.921 337.44L198.577 333.582L195.777 330.852L199.655 330.291L201.384 326.788Z" fill="#DB6D5B"/>
<path d="M214.744 326.788L216.477 330.291L220.351 330.852L217.551 333.582L218.207 337.44L214.744 335.617L211.281 337.44L211.942 333.582L209.141 330.852L213.013 330.291L214.744 326.788Z" fill="#DB6D5B"/>
<path d="M228.104 326.788L229.838 330.291L233.71 330.852L230.91 333.582L231.569 337.44L228.104 335.617L224.644 337.44L225.303 333.582L222.504 330.852L226.372 330.291L228.104 326.788Z" fill="#DB6D5B"/>
<path d="M241.458 326.788L243.198 330.291L247.066 330.852L244.265 333.582L244.922 337.44L241.458 335.617L238.001 337.44L238.664 333.582L235.859 330.852L239.729 330.291L241.458 326.788Z" fill="#DB6D5B"/>
<path d="M254.818 326.788L256.556 330.291L260.425 330.852L257.625 333.582L258.289 337.44L254.818 335.617L251.364 337.44L252.027 333.582L249.223 330.852L253.094 330.291L254.818 326.788Z" fill="#DB6D5B"/>
<path d="M268.183 326.788L269.912 330.291L273.783 330.852L270.982 333.582L271.646 337.44L268.183 335.617L264.719 337.44L265.386 333.582L262.574 330.852L266.449 330.291L268.183 326.788Z" fill="#DB6D5B"/>
<path d="M281.542 326.788L283.277 330.291L287.148 330.852L284.345 333.582L285.008 337.44L281.542 335.617L278.077 337.44L278.746 333.582L275.941 330.852L279.811 330.291L281.542 326.788Z" fill="#DB6D5B"/>
<path d="M281.535 326.788L283.268 330.291L287.14 330.852L284.338 333.582L285.003 337.44L281.535 335.617L278.075 337.44L278.736 333.582L275.934 330.852L279.808 330.291L281.535 326.788Z" fill="#DB6D5B"/>
<path d="M294.898 326.788L296.633 330.291L300.501 330.852L297.706 333.582L298.364 337.44L294.898 335.617L291.439 337.44L292.098 333.582L289.301 330.852L293.17 330.291L294.898 326.788Z" fill="#DB6D5B"/>
<path d="M308.259 326.788L309.996 330.291L313.865 330.852L311.066 333.582L311.723 337.44L308.259 335.617L304.798 337.44L305.461 333.582L302.656 330.852L306.527 330.291L308.259 326.788Z" fill="#DB6D5B"/>
<path d="M321.618 326.788L323.352 330.291L327.226 330.852L324.42 333.582L325.08 337.44L321.618 335.617L318.155 337.44L318.822 333.582L316.016 330.852L319.887 330.291L321.618 326.788Z" fill="#DB6D5B"/>
<path d="M334.972 326.788L336.708 330.291L340.58 330.852L337.774 333.582L338.437 337.44L334.972 335.617L331.509 337.44L332.173 333.582L329.367 330.852L333.242 330.291L334.972 326.788Z" fill="#DB6D5B"/>
<path d="M348.34 326.788L350.07 330.291L353.941 330.852L351.132 333.582L351.801 337.44L348.34 335.617L344.871 337.44L345.54 333.582L342.734 330.852L346.609 330.291L348.34 326.788Z" fill="#DB6D5B"/>
<path d="M361.697 326.788L363.428 330.291L367.3 330.852L364.5 333.582L365.165 337.44L361.697 335.617L358.232 337.44L358.896 333.582L356.098 330.852L359.97 330.291L361.697 326.788Z" fill="#DB6D5B"/>
<path d="M121.226 189.186L122.961 192.69L126.826 193.258L124.027 195.986L124.69 199.842L121.226 198.019L117.768 199.842L118.421 195.986L115.621 193.258L119.498 192.69L121.226 189.186Z" fill="#DB6D5B"/>
<path d="M134.585 189.186L136.32 192.69L140.194 193.258L137.393 195.986L138.049 199.842L134.585 198.019L131.129 199.842L131.784 195.986L128.988 193.258L132.856 192.69L134.585 189.186Z" fill="#DB6D5B"/>
<path d="M147.95 189.186L149.681 192.69L153.552 193.258L150.753 195.986L151.41 199.842L147.95 198.019L144.483 199.842L145.146 195.986L142.344 193.258L146.216 192.69L147.95 189.186Z" fill="#DB6D5B"/>
<path d="M161.308 189.186L163.045 192.69L166.913 193.258L164.112 195.986L164.77 199.842L161.308 198.019L157.845 199.842L158.508 195.986L155.703 193.258L159.576 192.69L161.308 189.186Z" fill="#DB6D5B"/>
<path d="M174.667 189.186L176.406 192.69L180.275 193.258L177.472 195.986L178.131 199.842L174.667 198.019L171.209 199.842L171.869 195.986L169.066 193.258L172.937 192.69L174.667 189.186Z" fill="#DB6D5B"/>
<path d="M188.028 189.186L189.76 192.69L193.63 193.258L190.825 195.986L191.486 199.842L188.028 198.019L184.56 199.842L185.23 195.986L182.418 193.258L186.297 192.69L188.028 189.186Z" fill="#DB6D5B"/>
<path d="M201.384 189.186L203.121 192.69L206.991 193.258L204.191 195.986L204.854 199.842L201.384 198.019L197.921 199.842L198.586 195.986L195.785 193.258L199.655 192.69L201.384 189.186Z" fill="#DB6D5B"/>
<path d="M201.384 189.186L203.115 192.69L206.987 193.258L204.186 195.986L204.848 199.842L201.384 198.019L197.921 199.842L198.577 195.986L195.777 193.258L199.655 192.69L201.384 189.186Z" fill="#DB6D5B"/>
<path d="M214.744 189.186L216.477 192.69L220.351 193.258L217.551 195.986L218.207 199.842L214.744 198.019L211.281 199.842L211.942 195.986L209.141 193.258L213.013 192.69L214.744 189.186Z" fill="#DB6D5B"/>
<path d="M228.104 189.186L229.838 192.69L233.71 193.258L230.91 195.986L231.569 199.842L228.104 198.019L224.644 199.842L225.303 195.986L222.504 193.258L226.372 192.69L228.104 189.186Z" fill="#DB6D5B"/>
<path d="M241.458 189.186L243.198 192.69L247.066 193.258L244.265 195.986L244.922 199.842L241.458 198.019L238.001 199.842L238.664 195.986L235.859 193.258L239.729 192.69L241.458 189.186Z" fill="#DB6D5B"/>
<path d="M254.818 189.186L256.556 192.69L260.425 193.258L257.625 195.986L258.289 199.842L254.818 198.019L251.364 199.842L252.027 195.986L249.223 193.258L253.094 192.69L254.818 189.186Z" fill="#DB6D5B"/>
<path d="M268.183 189.186L269.912 192.69L273.783 193.258L270.982 195.986L271.646 199.842L268.183 198.019L264.719 199.842L265.386 195.986L262.574 193.258L266.449 192.69L268.183 189.186Z" fill="#DB6D5B"/>
<path d="M281.542 189.186L283.277 192.69L287.148 193.258L284.345 195.986L285.008 199.842L281.542 198.019L278.077 199.842L278.746 195.986L275.941 193.258L279.811 192.69L281.542 189.186Z" fill="#DB6D5B"/>
<path d="M281.535 189.186L283.268 192.69L287.14 193.258L284.338 195.986L285.003 199.842L281.535 198.019L278.075 199.842L278.736 195.986L275.934 193.258L279.808 192.69L281.535 189.186Z" fill="#DB6D5B"/>
<path d="M294.898 189.186L296.633 192.69L300.501 193.258L297.706 195.986L298.364 199.842L294.898 198.019L291.439 199.842L292.098 195.986L289.301 193.258L293.17 192.69L294.898 189.186Z" fill="#DB6D5B"/>
<path d="M308.259 189.186L309.996 192.69L313.865 193.258L311.066 195.986L311.723 199.842L308.259 198.019L304.798 199.842L305.461 195.986L302.656 193.258L306.527 192.69L308.259 189.186Z" fill="#DB6D5B"/>
<path d="M321.618 189.186L323.352 192.69L327.226 193.258L324.42 195.986L325.08 199.842L321.618 198.019L318.155 199.842L318.822 195.986L316.016 193.258L319.887 192.69L321.618 189.186Z" fill="#DB6D5B"/>
<path d="M334.972 189.186L336.708 192.69L340.58 193.258L337.774 195.986L338.437 199.842L334.972 198.019L331.509 199.842L332.173 195.986L329.367 193.258L333.242 192.69L334.972 189.186Z" fill="#DB6D5B"/>
<path d="M348.34 189.186L350.07 192.69L353.941 193.258L351.132 195.986L351.801 199.842L348.34 198.019L344.871 199.842L345.54 195.986L342.734 193.258L346.609 192.69L348.34 189.186Z" fill="#DB6D5B"/>
<path d="M361.697 189.186L363.428 192.69L367.3 193.258L364.5 195.986L365.165 199.842L361.697 198.019L358.232 199.842L358.896 195.986L356.098 193.258L359.97 192.69L361.697 189.186Z" fill="#DB6D5B"/>
<path d="M373.577 320.516H107.402V322.345H373.577V320.516Z" fill="#DB6D5B"/>
<path d="M373.577 204.092H107.402V205.915H373.577V204.092Z" fill="#DB6D5B"/>
<path d="M190.607 215.373L187.471 230.118H191.043C191.278 230.118 191.43 230.157 191.514 230.223C191.597 230.291 191.64 230.394 191.64 230.526C191.64 230.701 191.565 230.85 191.431 230.973C191.291 231.096 191.084 231.16 190.812 231.16H182.833C182.605 231.16 182.442 231.122 182.364 231.048C182.287 230.973 182.246 230.873 182.246 230.742C182.246 230.573 182.312 230.427 182.448 230.306C182.587 230.18 182.796 230.118 183.07 230.118H186.404L189.237 216.823L185.598 217.887C185.426 217.939 185.293 217.965 185.214 217.965C185.113 217.965 185.025 217.928 184.954 217.847C184.88 217.767 184.841 217.672 184.841 217.558C184.841 217.417 184.886 217.288 184.978 217.178C185.071 217.056 185.242 216.964 185.507 216.89L190.607 215.373Z" fill="#2C2E36"/>
<path d="M208.668 222.093L208.112 224.669C207.635 226.92 206.735 228.691 205.395 229.991C204.339 231.011 203.181 231.524 201.933 231.524C201.107 231.524 200.414 231.327 199.854 230.927C199.293 230.532 198.915 230.016 198.721 229.377C198.44 228.468 198.297 227.611 198.297 226.8C198.297 226.175 198.383 225.461 198.543 224.669L199.105 222.09C199.577 219.835 200.488 218.054 201.834 216.757C202.884 215.732 204.03 215.219 205.28 215.219C206.117 215.219 206.813 215.417 207.365 215.818C207.921 216.214 208.293 216.738 208.492 217.392C208.771 218.3 208.918 219.158 208.918 219.961C208.917 220.58 208.834 221.293 208.668 222.093ZM207.592 222.227C207.721 221.592 207.788 221.003 207.788 220.47C207.788 219.335 207.676 218.481 207.446 217.902C207.213 217.323 206.904 216.91 206.524 216.658C206.144 216.406 205.671 216.276 205.108 216.276C203.936 216.276 202.889 216.876 201.981 218.077C201.071 219.275 200.45 220.66 200.116 222.228L199.62 224.521C199.489 225.166 199.425 225.754 199.425 226.282C199.425 227.409 199.537 228.256 199.769 228.842C200.005 229.423 200.309 229.839 200.689 230.1C201.071 230.357 201.542 230.481 202.104 230.481C203.279 230.481 204.322 229.884 205.234 228.684C206.144 227.477 206.765 226.092 207.096 224.521L207.592 222.227Z" fill="#2C2E36"/>
<path d="M221.096 215.373L217.956 230.118H221.533C221.762 230.118 221.922 230.157 222.005 230.223C222.084 230.291 222.127 230.394 222.127 230.526C222.127 230.701 222.055 230.85 221.921 230.973C221.781 231.096 221.568 231.16 221.298 231.16H213.316C213.091 231.16 212.931 231.122 212.852 231.048C212.77 230.973 212.727 230.873 212.727 230.742C212.727 230.573 212.793 230.427 212.936 230.306C213.075 230.18 213.277 230.118 213.555 230.118H216.891L219.722 216.823L216.083 217.887C215.913 217.939 215.781 217.965 215.695 217.965C215.598 217.965 215.511 217.928 215.439 217.847C215.363 217.767 215.329 217.672 215.329 217.558C215.329 217.417 215.375 217.288 215.461 217.178C215.555 217.056 215.727 216.964 215.988 216.89L221.096 215.373Z" fill="#2C2E36"/>
<path d="M239.154 222.093L238.595 224.669C238.125 226.92 237.22 228.691 235.882 229.991C234.824 231.011 233.668 231.524 232.42 231.524C231.594 231.524 230.902 231.327 230.339 230.927C229.783 230.532 229.404 230.016 229.21 229.377C228.929 228.468 228.785 227.611 228.785 226.8C228.785 226.175 228.867 225.461 229.031 224.669L229.594 222.09C230.063 219.835 230.972 218.054 232.322 216.757C233.372 215.732 234.519 215.219 235.77 215.219C236.607 215.219 237.3 215.417 237.854 215.818C238.405 216.214 238.781 216.738 238.981 217.392C239.258 218.3 239.404 219.158 239.404 219.961C239.405 220.58 239.317 221.293 239.154 222.093ZM238.078 222.227C238.21 221.592 238.277 221.003 238.277 220.47C238.277 219.335 238.162 218.481 237.93 217.902C237.695 217.323 237.391 216.91 237.012 216.658C236.63 216.406 236.154 216.276 235.597 216.276C234.421 216.276 233.375 216.876 232.467 218.077C231.553 219.275 230.935 220.66 230.606 222.228L230.109 224.521C229.978 225.166 229.909 225.754 229.909 226.282C229.909 227.409 230.027 228.256 230.258 228.842C230.489 229.423 230.8 229.839 231.176 230.1C231.553 230.357 232.025 230.481 232.589 230.481C233.768 230.481 234.807 229.884 235.72 228.684C236.63 227.477 237.251 226.092 237.582 224.521L238.078 222.227Z" fill="#2C2E36"/>
<path d="M251.582 215.373L248.444 230.118H252.021C252.251 230.118 252.406 230.157 252.485 230.223C252.566 230.291 252.61 230.394 252.61 230.526C252.61 230.701 252.539 230.85 252.406 230.973C252.268 231.096 252.057 231.16 251.787 231.16H243.808C243.581 231.16 243.421 231.122 243.338 231.048C243.257 230.973 243.215 230.873 243.215 230.742C243.215 230.573 243.282 230.427 243.423 230.306C243.562 230.18 243.771 230.118 244.046 230.118H247.378L250.21 216.823L246.575 217.887C246.396 217.939 246.268 217.965 246.187 217.965C246.088 217.965 245.999 217.928 245.923 217.847C245.85 217.767 245.813 217.672 245.813 217.558C245.813 217.417 245.856 217.288 245.949 217.178C246.041 217.056 246.216 216.964 246.478 216.89L251.582 215.373Z" fill="#2C2E36"/>
<path d="M258.661 230.118H266.665C266.77 229.615 266.871 229.314 266.961 229.225C267.096 229.082 267.256 229.011 267.435 229.011C267.548 229.011 267.646 229.048 267.722 229.122C267.807 229.2 267.847 229.286 267.847 229.386C267.847 229.466 267.836 229.574 267.807 229.706L267.492 231.16H257.422L257.75 229.624C260.43 227.589 262.979 225.593 265.401 223.633C266.54 222.69 267.331 221.982 267.776 221.511C268.219 221.04 268.525 220.615 268.692 220.231C268.859 219.846 268.949 219.456 268.949 219.069C268.949 218.292 268.66 217.633 268.098 217.091C267.529 216.549 266.817 216.277 265.945 216.277C265.037 216.277 264.173 216.535 263.357 217.045C262.536 217.558 261.936 218.206 261.559 218.991C261.391 219.33 261.173 219.503 260.905 219.503C260.789 219.503 260.692 219.465 260.617 219.39C260.536 219.313 260.496 219.227 260.496 219.119C260.496 218.834 260.714 218.41 261.144 217.84C261.781 217.004 262.547 216.362 263.447 215.902C264.343 215.447 265.262 215.22 266.194 215.22C267.285 215.22 268.19 215.578 268.919 216.295C269.657 217.011 270.026 217.871 270.026 218.88C270.026 219.362 269.921 219.856 269.716 220.36C269.515 220.865 269.175 221.378 268.7 221.897C268.224 222.419 267.423 223.14 266.297 224.066C263.208 226.604 260.667 228.598 258.674 230.046L258.661 230.118Z" fill="#2C2E36"/>
<path d="M284.653 217.09L284.749 216.626H277.314L277.115 217.546C277.055 217.795 276.966 217.976 276.842 218.084C276.729 218.193 276.589 218.243 276.427 218.243C276.309 218.243 276.215 218.205 276.132 218.134C276.058 218.059 276.016 217.968 276.016 217.859C276.016 217.787 276.032 217.683 276.058 217.552L276.487 215.582H286.044L285.66 217.233L278.638 230.661C278.515 230.876 278.409 231.019 278.304 231.09C278.199 231.159 278.08 231.194 277.959 231.194C277.837 231.194 277.735 231.156 277.658 231.079C277.586 231.008 277.546 230.907 277.546 230.781C277.546 230.687 277.604 230.543 277.711 230.34L284.653 217.09Z" fill="#2C2E36"/>
<path d="M297.316 215.373L294.176 230.118H297.747C297.984 230.118 298.136 230.157 298.217 230.223C298.299 230.291 298.339 230.394 298.339 230.526C298.339 230.701 298.27 230.85 298.136 230.973C297.993 231.096 297.782 231.16 297.509 231.16H289.533C289.31 231.16 289.148 231.122 289.068 231.048C288.986 230.973 288.949 230.873 288.949 230.742C288.949 230.573 289.01 230.427 289.154 230.306C289.289 230.18 289.496 230.118 289.773 230.118H293.109L295.938 216.823L292.303 217.887C292.131 217.939 292 217.965 291.918 217.965C291.816 217.965 291.73 217.928 291.655 217.847C291.582 217.767 291.543 217.672 291.543 217.558C291.543 217.417 291.584 217.288 291.677 217.178C291.768 217.056 291.946 216.964 292.205 216.89L297.316 215.373Z" fill="#2C2E36"/>
<path d="M345.703 123.717C344.149 121.021 345.064 117.577 347.765 116.021L346.635 114.068C343.94 115.625 340.494 114.702 338.939 112.007C337.384 109.31 338.302 105.862 341 104.304L339.184 101.152C339.184 101.152 310.665 116.72 294.815 89.2598L59.7586 224.972C59.7586 224.972 76.6708 252.71 46.5352 270.113L48.3521 273.266C51.0487 271.707 54.4989 272.635 56.0543 275.33C57.6128 278.024 56.6867 281.472 53.9944 283.029L55.1183 284.979C57.81 283.425 61.2651 284.344 62.8175 287.043C64.3778 289.737 63.4462 293.185 60.7526 294.743L61.8815 296.692C64.575 295.138 68.0252 296.056 69.5843 298.752C71.1373 301.445 70.2087 304.897 67.5164 306.457L68.6465 308.405C71.3345 306.852 74.7871 307.769 76.345 310.466C77.9017 313.158 76.9756 316.611 74.2815 318.17L75.4072 320.12C78.0989 318.566 81.5497 319.483 83.1088 322.179C84.6593 324.878 83.7332 328.324 81.0459 329.877L82.1679 331.832C84.8639 330.278 88.3141 331.197 89.8714 333.891C91.4218 336.586 90.4951 340.037 87.8028 341.591L88.9286 343.546C91.6227 341.987 95.0748 342.91 96.6302 345.604C98.1875 348.304 97.2589 351.75 94.5666 353.303L96.4107 356.496C96.4107 356.496 126.648 340.827 142.11 367.608L377.168 231.9C377.168 231.9 361.6 203.389 389.051 187.539L387.21 184.347C384.514 185.902 381.07 184.979 379.514 182.281C377.957 179.586 378.881 176.141 381.574 174.584L380.451 172.632C377.753 174.188 374.305 173.262 372.754 170.568C371.196 167.874 372.115 164.429 374.815 162.872L373.685 160.92C370.992 162.479 367.545 161.553 365.992 158.858C364.433 156.161 365.355 152.717 368.053 151.161L366.925 149.21C364.229 150.765 360.787 149.837 359.227 147.144C357.672 144.449 358.592 141.005 361.29 139.445L360.164 137.496C357.47 139.051 354.021 138.127 352.465 135.432C350.906 132.734 351.83 129.289 354.525 127.733L353.399 125.779C350.699 127.337 347.259 126.413 345.703 123.717Z" fill="#E0915F"/>
<path d="M343.871 121.84C342.314 119.143 343.236 115.7 345.93 114.147L344.805 112.191C342.112 113.749 338.666 112.825 337.105 110.131C335.55 107.433 336.472 103.985 339.171 102.43L337.347 99.2762C337.347 99.2762 308.836 114.844 292.982 87.3838L57.927 223.093C57.927 223.093 74.8398 250.835 44.6992 268.231L46.5223 271.39C49.2177 269.83 52.6629 270.753 54.2171 273.454C55.7775 276.143 54.8495 279.595 52.1597 281.147L53.2824 283.103C55.979 281.544 59.4255 282.466 60.9827 285.162C62.5363 287.855 61.6133 291.307 58.9198 292.86L60.0486 294.81C62.7397 293.257 66.1849 294.179 67.7428 296.874C69.2982 299.575 68.3796 303.02 65.6836 304.574L66.8124 306.53C69.5035 304.97 72.9487 305.893 74.5085 308.587C76.0639 311.283 75.1403 314.735 72.4449 316.287L73.5737 318.237C76.2685 316.684 79.715 317.607 81.2729 320.303C82.8277 323.002 81.9028 326.448 79.2105 328.002L80.3338 329.95C83.0286 328.397 86.4738 329.32 88.0342 332.015C89.5896 334.709 88.6654 338.155 85.9749 339.715L87.1007 341.665C89.793 340.11 93.2413 341.033 94.7936 343.728C96.3534 346.422 95.4273 349.874 92.7363 351.428L94.5767 354.615C94.5767 354.615 124.814 338.946 140.282 365.732L375.338 230.021C375.338 230.021 359.773 201.509 387.225 185.659L385.381 182.466C382.683 184.023 379.239 183.099 377.681 180.402C376.13 177.708 377.048 174.261 379.744 172.705L378.618 170.753C375.916 172.309 372.477 171.384 370.921 168.689C369.364 165.994 370.288 162.55 372.982 160.992L371.854 159.042C369.159 160.6 365.712 159.673 364.159 156.98C362.603 154.281 363.523 150.838 366.223 149.282L365.094 147.329C362.398 148.887 358.953 147.958 357.394 145.266C355.842 142.571 356.763 139.125 359.458 137.567L358.335 135.617C355.634 137.169 352.187 136.247 350.631 133.552C349.079 130.854 349.998 127.41 352.692 125.852L351.568 123.902C348.871 125.458 345.427 124.534 343.871 121.84Z" fill="#FBE1BA"/>
<path d="M145.449 340.828L148.703 342.996L152.33 341.557L151.278 345.318L153.777 348.329L149.863 348.483L147.78 351.791L146.416 348.122L142.633 347.159L145.704 344.728L145.449 340.828Z" fill="#E0915F"/>
<path d="M157.015 334.155L160.268 336.323L163.909 334.872L162.844 338.639L165.343 341.649L161.431 341.804L159.35 345.112L157.989 341.442L154.203 340.473L157.266 338.054L157.015 334.155Z" fill="#E0915F"/>
<path d="M168.594 327.472L171.844 329.637L175.48 328.193L174.419 331.954L176.919 334.964L173.008 335.12L170.922 338.433L169.561 334.758L165.773 333.795L168.838 331.374L168.594 327.472Z" fill="#E0915F"/>
<path d="M180.165 320.791L183.418 322.958L187.051 321.514L185.986 325.275L188.486 328.29L184.579 328.439L182.492 331.753L181.136 328.078L177.344 327.121L180.411 324.691L180.165 320.791Z" fill="#E0915F"/>
<path d="M191.725 314.112L194.979 316.278L198.616 314.835L197.554 318.6L200.052 321.606L196.144 321.76L194.055 325.074L192.703 321.399L188.906 320.435L191.974 318.011L191.725 314.112Z" fill="#E0915F"/>
<path d="M203.303 307.431L206.552 309.598L210.191 308.153L209.125 311.916L211.625 314.933L207.717 315.081L205.629 318.394L204.279 314.719L200.48 313.761L203.553 311.33L203.303 307.431Z" fill="#E0915F"/>
<path d="M214.868 300.752L218.114 302.919L221.753 301.475L220.689 305.235L223.196 308.245L219.283 308.4L217.19 311.715L215.841 308.039L212.047 307.076L215.118 304.65L214.868 300.752Z" fill="#E0915F"/>
<path d="M214.864 300.757L218.116 302.919L221.751 301.48L220.69 305.24L223.19 308.25L219.28 308.399L217.191 311.714L215.834 308.044L212.043 307.08L215.12 304.65L214.864 300.757Z" fill="#E0915F"/>
<path d="M226.436 294.071L229.686 296.237L233.32 294.793L232.264 298.556L234.764 301.564L230.85 301.72L228.762 305.033L227.405 301.359L223.621 300.396L226.688 297.97L226.436 294.071Z" fill="#E0915F"/>
<path d="M238.002 287.392L241.258 289.56L244.895 288.115L243.835 291.877L246.331 294.885L242.416 295.041L240.337 298.347L238.978 294.68L235.188 293.715L238.253 291.29L238.002 287.392Z" fill="#E0915F"/>
<path d="M249.57 280.713L252.832 282.874L256.467 281.436L255.403 285.196L257.903 288.206L253.992 288.361L251.908 291.67L250.551 288L246.758 287.037L249.827 284.613L249.57 280.713Z" fill="#E0915F"/>
<path d="M261.143 274.033L264.394 276.201L268.032 274.755L266.966 278.516L269.467 281.526L265.557 281.682L263.477 284.989L262.116 281.32L258.328 280.357L261.395 277.932L261.143 274.033Z" fill="#E0915F"/>
<path d="M272.71 267.354L275.966 269.521L279.597 268.077L278.536 271.838L281.041 274.848L277.127 275.002L275.04 278.31L273.685 274.642L269.891 273.678L272.962 271.253L272.71 267.354Z" fill="#E0915F"/>
<path d="M284.288 260.675L287.537 262.843L291.176 261.397L290.114 265.159L292.611 268.169L288.701 268.323L286.612 271.631L285.257 267.962L281.469 266.998L284.537 264.574L284.288 260.675Z" fill="#E0915F"/>
<path d="M284.285 260.675L287.537 262.843L291.173 261.397L290.11 265.159L292.613 268.169L288.7 268.323L286.613 271.631L285.254 267.962L281.465 266.998L284.539 264.574L284.285 260.675Z" fill="#E0915F"/>
<path d="M295.85 253.997L299.103 256.161L302.741 254.716L301.679 258.478L304.178 261.489L300.269 261.643L298.183 264.953L296.828 261.282L293.035 260.319L296.106 257.894L295.85 253.997Z" fill="#E0915F"/>
<path d="M307.42 247.316L310.676 249.478L314.312 248.034L313.25 251.8L315.754 254.81L311.841 254.963L309.754 258.271L308.4 254.598L304.605 253.637L307.676 251.212L307.42 247.316Z" fill="#E0915F"/>
<path d="M318.999 240.636L322.247 242.799L325.886 241.359L324.82 245.118L327.317 248.131L323.411 248.284L321.326 251.595L319.972 247.922L316.18 246.959L319.247 244.534L318.999 240.636Z" fill="#E0915F"/>
<path d="M330.559 233.955L333.817 236.119L337.449 234.675L336.392 238.441L338.89 241.449L334.976 241.604L332.892 244.915L331.535 241.242L327.742 240.282L330.818 237.852L330.559 233.955Z" fill="#E0915F"/>
<path d="M342.133 227.275L345.384 229.443L349.02 227.998L347.952 231.762L350.459 234.769L346.549 234.924L344.461 238.235L343.11 234.561L339.312 233.6L342.385 231.174L342.133 227.275Z" fill="#E0915F"/>
<path d="M353.706 220.597L356.951 222.763L360.591 221.318L359.526 225.08L362.037 228.087L358.117 228.245L356.028 231.553L354.679 227.881L350.887 226.917L353.959 224.493L353.706 220.597Z" fill="#E0915F"/>
<path d="M76.6541 221.671L79.9078 223.836L83.5403 222.392L82.4783 226.154L84.9795 229.167L81.0681 229.317L78.9848 232.627L77.6253 228.957L73.832 227.993L76.907 225.566L76.6541 221.671Z" fill="#E0915F"/>
<path d="M88.2168 214.991L91.4741 217.159L95.111 215.707L94.0477 219.474L96.5484 222.484L92.637 222.639L90.5518 225.948L89.193 222.278L85.4102 221.312L88.4764 218.887L88.2168 214.991Z" fill="#E0915F"/>
<path d="M99.791 208.309L103.043 210.475L106.681 209.029L105.618 212.796L108.118 215.801L104.21 215.957L102.12 219.268L100.765 215.595L96.9727 214.635L100.04 212.21L99.791 208.309Z" fill="#E0915F"/>
<path d="M111.364 201.63L114.62 203.797L118.255 202.353L117.19 206.116L119.691 209.126L115.78 209.278L113.693 212.589L112.337 208.917L108.551 207.956L111.613 205.529L111.364 201.63Z" fill="#E0915F"/>
<path d="M122.93 194.95L126.187 197.118L129.823 195.669L128.756 199.433L131.256 202.446L127.346 202.597L125.262 205.906L123.905 202.238L120.113 201.274L123.181 198.849L122.93 194.95Z" fill="#E0915F"/>
<path d="M134.506 188.267L137.752 190.435L141.385 188.99L140.326 192.756L142.826 195.766L138.918 195.916L136.827 199.23L135.479 195.554L131.68 194.596L134.752 192.169L134.506 188.267Z" fill="#E0915F"/>
<path d="M146.073 181.592L149.326 183.758L152.961 182.314L151.9 186.075L154.405 189.084L150.491 189.24L148.401 192.551L147.049 188.875L143.258 187.915L146.327 185.49L146.073 181.592Z" fill="#E0915F"/>
<path d="M146.067 181.591L149.321 183.757L152.952 182.314L151.895 186.077L154.397 189.083L150.485 189.239L148.398 192.55L147.037 188.881L143.25 187.916L146.324 185.489L146.067 181.591Z" fill="#E0915F"/>
<path d="M157.635 174.913L160.886 177.08L164.527 175.635L163.463 179.398L165.962 182.406L162.053 182.562L159.962 185.872L158.609 182.202L154.82 181.235L157.895 178.811L157.635 174.913Z" fill="#E0915F"/>
<path d="M169.208 168.229L172.463 170.399L176.101 168.951L175.039 172.715L177.537 175.725L173.627 175.877L171.54 179.188L170.186 175.519L166.391 174.555L169.46 172.131L169.208 168.229Z" fill="#E0915F"/>
<path d="M180.776 161.55L184.034 163.717L187.669 162.269L186.605 166.036L189.104 169.049L185.194 169.198L183.11 172.506L181.754 168.837L177.961 167.876L181.029 165.448L180.776 161.55Z" fill="#E0915F"/>
<path d="M192.345 154.874L195.598 157.037L199.236 155.594L198.171 159.36L200.671 162.368L196.761 162.522L194.681 165.83L193.321 162.161L189.531 161.197L192.602 158.769L192.345 154.874Z" fill="#E0915F"/>
<path d="M203.922 148.19L207.175 150.358L210.803 148.912L209.741 152.677L212.245 155.687L208.334 155.839L206.251 159.149L204.895 155.475L201.098 154.52L204.171 152.089L203.922 148.19Z" fill="#E0915F"/>
<path d="M215.488 141.512L218.745 143.678L222.377 142.234L221.319 145.996L223.817 149.008L219.902 149.161L217.818 152.471L216.463 148.798L212.672 147.835L215.74 145.413L215.488 141.512Z" fill="#E0915F"/>
<path d="M215.482 141.515L218.734 143.681L222.369 142.236L221.308 146.001L223.812 149.008L219.896 149.162L217.813 152.471L216.452 148.804L212.664 147.838L215.735 145.412L215.482 141.515Z" fill="#E0915F"/>
<path d="M227.053 134.833L230.303 137.004L233.939 135.558L232.881 139.32L235.381 142.329L231.467 142.481L229.381 145.792L228.026 142.123L224.234 141.156L227.305 138.731L227.053 134.833Z" fill="#E0915F"/>
<path d="M238.619 128.153L241.874 130.321L245.511 128.876L244.449 132.64L246.948 135.647L243.037 135.803L240.952 139.109L239.596 135.439L235.805 134.477L238.877 132.052L238.619 128.153Z" fill="#E0915F"/>
<path d="M250.195 121.474L253.449 123.637L257.08 122.196L256.018 125.959L258.519 128.971L254.608 129.122L252.524 132.432L251.171 128.76L247.375 127.8L250.445 125.372L250.195 121.474Z" fill="#E0915F"/>
<path d="M261.76 114.795L265.013 116.962L268.65 115.516L267.584 119.282L270.085 122.288L266.172 122.444L264.087 125.754L262.734 122.079L258.938 121.122L262.011 118.693L261.76 114.795Z" fill="#E0915F"/>
<path d="M273.333 108.112L276.584 110.282L280.214 108.837L279.154 112.605L281.657 115.611L277.745 115.76L275.658 119.071L274.306 115.4L270.512 114.439L273.583 112.009L273.333 108.112Z" fill="#E0915F"/>
<path d="M284.9 101.437L288.155 103.6L291.793 102.158L290.73 105.922L293.233 108.929L289.321 109.084L287.231 112.395L285.879 108.72L282.09 107.76L285.156 105.335L284.9 101.437Z" fill="#E0915F"/>
<path d="M360.85 209.218L130.344 342.305L131.257 343.886L361.763 210.799L360.85 209.218Z" fill="#E0915F"/>
<path d="M303.555 109.978L73.0426 243.064L72.1289 241.488L302.645 108.398L303.555 109.978Z" fill="#E0915F"/>
</svg>
